G04 #@! TF.GenerationSoftware,KiCad,Pcbnew,(5.0.0)*
G04 #@! TF.CreationDate,2020-08-12T20:03:17-04:00*
G04 #@! TF.ProjectId,Temple_RPi_HAT,54656D706C655F5250695F4841542E6B,rev?*
G04 #@! TF.SameCoordinates,Original*
G04 #@! TF.FileFunction,Paste,Top*
G04 #@! TF.FilePolarity,Positive*
%FSLAX46Y46*%
G04 Gerber Fmt 4.6, Leading zero omitted, Abs format (unit mm)*
G04 Created by KiCad (PCBNEW (5.0.0)) date 08/12/20 20:03:17*
%MOMM*%
%LPD*%
G01*
G04 APERTURE LIST*
%ADD10R,0.350000X0.825000*%
%ADD11C,0.350000*%
%ADD12R,0.825000X0.350000*%
%ADD13R,1.260000X1.260000*%
%ADD14R,1.200000X1.200000*%
%ADD15R,0.305000X0.890000*%
%ADD16R,0.564000X0.504000*%
%ADD17R,3.500000X1.600000*%
%ADD18R,3.500000X2.350000*%
%ADD19R,0.650000X0.300000*%
%ADD20R,0.465000X0.744000*%
%ADD21R,1.800000X2.500000*%
%ADD22R,0.700000X1.500000*%
%ADD23R,1.000000X0.800000*%
%ADD24R,0.650000X1.060000*%
%ADD25R,3.800000X2.000000*%
%ADD26R,1.500000X2.000000*%
%ADD27R,1.800000X1.200000*%
%ADD28R,1.550000X0.600000*%
%ADD29R,1.425000X2.500000*%
%ADD30R,1.825000X0.700000*%
%ADD31R,0.400000X1.750000*%
%ADD32R,0.500000X0.900000*%
%ADD33R,0.900000X0.500000*%
%ADD34R,0.800000X0.750000*%
%ADD35R,0.750000X0.800000*%
%ADD36R,1.600000X3.000000*%
%ADD37R,0.355600X0.254000*%
%ADD38R,0.254000X0.355600*%
%ADD39R,1.562100X0.355600*%
%ADD40R,0.675000X0.250000*%
%ADD41R,0.250000X0.675000*%
%ADD42R,1.300000X1.000000*%
%ADD43R,1.200000X0.600000*%
%ADD44R,0.600000X1.200000*%
G04 APERTURE END LIST*
D10*
G04 #@! TO.C,U10*
X102254000Y-163478000D03*
D11*
X102254000Y-163065500D03*
D10*
X102904000Y-163478000D03*
D11*
X102904000Y-163065500D03*
D10*
X103554000Y-163478000D03*
D11*
X103554000Y-163065500D03*
D10*
X104204000Y-163478000D03*
D11*
X104204000Y-163065500D03*
D12*
X105216500Y-162465500D03*
D11*
X104804000Y-162465500D03*
D12*
X105216500Y-161815500D03*
D11*
X104804000Y-161815500D03*
D12*
X105216500Y-161165500D03*
D11*
X104804000Y-161165500D03*
D12*
X105216500Y-160515500D03*
D11*
X104804000Y-160515500D03*
D10*
X104204000Y-159503000D03*
D11*
X104204000Y-159915500D03*
D10*
X103554000Y-159503000D03*
D11*
X103554000Y-159915500D03*
D10*
X102904000Y-159503000D03*
D11*
X102904000Y-159915500D03*
D10*
X102254000Y-159503000D03*
D11*
X102254000Y-159915500D03*
D12*
X101241500Y-160515500D03*
D11*
X101654000Y-160515500D03*
D12*
X101241500Y-161165500D03*
D11*
X101654000Y-161165500D03*
D12*
X101241500Y-161815500D03*
D11*
X101654000Y-161815500D03*
D12*
X101241500Y-162465500D03*
D11*
X101654000Y-162465500D03*
D13*
X103229000Y-161490500D03*
G04 #@! TD*
D14*
G04 #@! TO.C,D1*
X156315000Y-175090000D03*
X156315000Y-177290000D03*
G04 #@! TD*
D15*
G04 #@! TO.C,U6*
X122535000Y-148355000D03*
X123035000Y-148355000D03*
X123535000Y-148355000D03*
X124035000Y-148355000D03*
X124535000Y-148355000D03*
X124535000Y-144145000D03*
X124035000Y-144145000D03*
X123535000Y-144145000D03*
X123035000Y-144145000D03*
X122535000Y-144145000D03*
D16*
X124005000Y-145830000D03*
X123065000Y-145830000D03*
X124005000Y-146670000D03*
X123065000Y-146670000D03*
G04 #@! TD*
D14*
G04 #@! TO.C,D6*
X146155000Y-176614000D03*
X146155000Y-178814000D03*
G04 #@! TD*
G04 #@! TO.C,D7*
X144123000Y-176614000D03*
X144123000Y-178814000D03*
G04 #@! TD*
G04 #@! TO.C,D9*
X142091000Y-176614000D03*
X142091000Y-178814000D03*
G04 #@! TD*
G04 #@! TO.C,D10*
X150219000Y-176614000D03*
X150219000Y-178814000D03*
G04 #@! TD*
D17*
G04 #@! TO.C,F1*
X137265000Y-132432000D03*
X137265000Y-137312000D03*
G04 #@! TD*
D18*
G04 #@! TO.C,L1*
X99292000Y-153287000D03*
X99292000Y-147237000D03*
G04 #@! TD*
G04 #@! TO.C,L2*
X113135000Y-139761500D03*
X113135000Y-145811500D03*
G04 #@! TD*
D19*
G04 #@! TO.C,U4*
X100402500Y-142396000D03*
X100402500Y-142896000D03*
X100402500Y-143396000D03*
X100402500Y-143896000D03*
X100402500Y-144396000D03*
X103502500Y-144396000D03*
X103502500Y-143896000D03*
X103502500Y-143396000D03*
X103502500Y-142896000D03*
X103502500Y-142396000D03*
D20*
X102340000Y-144016000D03*
X102340000Y-142776000D03*
X101565000Y-144016000D03*
X101565000Y-142776000D03*
G04 #@! TD*
D19*
G04 #@! TO.C,U5*
X113097500Y-150731000D03*
X113097500Y-150231000D03*
X113097500Y-149731000D03*
X113097500Y-149231000D03*
X113097500Y-148731000D03*
X109997500Y-148731000D03*
X109997500Y-149231000D03*
X109997500Y-149731000D03*
X109997500Y-150231000D03*
X109997500Y-150731000D03*
D20*
X111160000Y-149111000D03*
X111160000Y-150351000D03*
X111935000Y-149111000D03*
X111935000Y-150351000D03*
G04 #@! TD*
D14*
G04 #@! TO.C,D2*
X152251000Y-175090000D03*
X152251000Y-177290000D03*
G04 #@! TD*
G04 #@! TO.C,D3*
X154283000Y-175090000D03*
X154283000Y-177290000D03*
G04 #@! TD*
D21*
G04 #@! TO.C,D4*
X97006000Y-139508000D03*
X97006000Y-143508000D03*
G04 #@! TD*
G04 #@! TO.C,D5*
X118723000Y-150810000D03*
X118723000Y-146810000D03*
G04 #@! TD*
G04 #@! TO.C,D8*
X137315000Y-145330000D03*
X137315000Y-141330000D03*
G04 #@! TD*
D22*
G04 #@! TO.C,SW2*
X138245000Y-128428000D03*
X135245000Y-128428000D03*
X133745000Y-128428000D03*
D23*
X139645000Y-125568000D03*
X132345000Y-125568000D03*
X132345000Y-127778000D03*
X139645000Y-127778000D03*
G04 #@! TD*
D24*
G04 #@! TO.C,U7*
X126917000Y-141730000D03*
X127867000Y-141730000D03*
X128817000Y-141730000D03*
X128817000Y-139530000D03*
X126917000Y-139530000D03*
G04 #@! TD*
D25*
G04 #@! TO.C,U8*
X76815000Y-163930000D03*
D26*
X76815000Y-157630000D03*
X74515000Y-157630000D03*
X79115000Y-157630000D03*
G04 #@! TD*
D10*
G04 #@! TO.C,U9*
X114192000Y-162259500D03*
D11*
X114192000Y-161847000D03*
D10*
X114842000Y-162259500D03*
D11*
X114842000Y-161847000D03*
D10*
X115492000Y-162259500D03*
D11*
X115492000Y-161847000D03*
D10*
X116142000Y-162259500D03*
D11*
X116142000Y-161847000D03*
D12*
X117154500Y-161247000D03*
D11*
X116742000Y-161247000D03*
D12*
X117154500Y-160597000D03*
D11*
X116742000Y-160597000D03*
D12*
X117154500Y-159947000D03*
D11*
X116742000Y-159947000D03*
D12*
X117154500Y-159297000D03*
D11*
X116742000Y-159297000D03*
D10*
X116142000Y-158284500D03*
D11*
X116142000Y-158697000D03*
D10*
X115492000Y-158284500D03*
D11*
X115492000Y-158697000D03*
D10*
X114842000Y-158284500D03*
D11*
X114842000Y-158697000D03*
D10*
X114192000Y-158284500D03*
D11*
X114192000Y-158697000D03*
D12*
X113179500Y-159297000D03*
D11*
X113592000Y-159297000D03*
D12*
X113179500Y-159947000D03*
D11*
X113592000Y-159947000D03*
D12*
X113179500Y-160597000D03*
D11*
X113592000Y-160597000D03*
D12*
X113179500Y-161247000D03*
D11*
X113592000Y-161247000D03*
D13*
X115167000Y-160272000D03*
G04 #@! TD*
D27*
G04 #@! TO.C,EN1*
X161909636Y-164016810D03*
X161909636Y-169616810D03*
D28*
X164434636Y-165316810D03*
X164434636Y-166316810D03*
X164434636Y-167316810D03*
X164434636Y-168316810D03*
G04 #@! TD*
D27*
G04 #@! TO.C,EN2*
X161909636Y-155126810D03*
X161909636Y-160726810D03*
D28*
X164434636Y-156426810D03*
X164434636Y-157426810D03*
X164434636Y-158426810D03*
X164434636Y-159426810D03*
G04 #@! TD*
D27*
G04 #@! TO.C,EN3*
X161909636Y-143986810D03*
X161909636Y-149586810D03*
D28*
X164434636Y-145286810D03*
X164434636Y-146286810D03*
X164434636Y-147286810D03*
X164434636Y-148286810D03*
G04 #@! TD*
D27*
G04 #@! TO.C,EN4*
X161909636Y-135211810D03*
X161909636Y-140811810D03*
D28*
X164434636Y-136511810D03*
X164434636Y-137511810D03*
X164434636Y-138511810D03*
X164434636Y-139511810D03*
G04 #@! TD*
D29*
G04 #@! TO.C,J8*
X110376000Y-178532000D03*
D30*
X114366000Y-176572000D03*
D31*
X112676000Y-175457000D03*
X112026000Y-175457000D03*
X111376000Y-175457000D03*
X110726000Y-175457000D03*
X110076000Y-175457000D03*
D30*
X108386000Y-176572000D03*
D29*
X112376000Y-178532000D03*
G04 #@! TD*
D14*
G04 #@! TO.C,D11*
X148187000Y-176614000D03*
X148187000Y-178814000D03*
G04 #@! TD*
D32*
G04 #@! TO.C,R1*
X79315000Y-153830000D03*
X80815000Y-153830000D03*
G04 #@! TD*
G04 #@! TO.C,R2*
X79315000Y-151390000D03*
X80815000Y-151390000D03*
G04 #@! TD*
D33*
G04 #@! TO.C,R3*
X135487000Y-161542000D03*
X135487000Y-160042000D03*
G04 #@! TD*
G04 #@! TO.C,R4*
X129391000Y-160042000D03*
X129391000Y-161542000D03*
G04 #@! TD*
G04 #@! TO.C,R5*
X82147000Y-164185000D03*
X82147000Y-162685000D03*
G04 #@! TD*
G04 #@! TO.C,R29*
X132439000Y-161542000D03*
X132439000Y-160042000D03*
G04 #@! TD*
G04 #@! TO.C,R30*
X105896000Y-142353000D03*
X105896000Y-140853000D03*
G04 #@! TD*
G04 #@! TO.C,R31*
X105896000Y-145008000D03*
X105896000Y-143508000D03*
G04 #@! TD*
G04 #@! TO.C,R32*
X112415000Y-152430000D03*
X112415000Y-153930000D03*
G04 #@! TD*
G04 #@! TO.C,R33*
X110515000Y-153930000D03*
X110515000Y-152430000D03*
G04 #@! TD*
G04 #@! TO.C,R34*
X133963000Y-161542000D03*
X133963000Y-160042000D03*
G04 #@! TD*
G04 #@! TO.C,R35*
X122787000Y-150874000D03*
X122787000Y-152374000D03*
G04 #@! TD*
G04 #@! TO.C,R36*
X124565000Y-150898000D03*
X124565000Y-152398000D03*
G04 #@! TD*
G04 #@! TO.C,R37*
X105896000Y-136801000D03*
X105896000Y-138301000D03*
G04 #@! TD*
D32*
G04 #@! TO.C,R38*
X127129000Y-136904000D03*
X128629000Y-136904000D03*
G04 #@! TD*
D33*
G04 #@! TO.C,R39*
X126851000Y-146834000D03*
X126851000Y-148334000D03*
G04 #@! TD*
G04 #@! TO.C,R40*
X123041000Y-140230000D03*
X123041000Y-141730000D03*
G04 #@! TD*
G04 #@! TO.C,R41*
X126851000Y-144040000D03*
X126851000Y-145540000D03*
G04 #@! TD*
G04 #@! TO.C,R42*
X127867000Y-161542000D03*
X127867000Y-160042000D03*
G04 #@! TD*
G04 #@! TO.C,R43*
X126343000Y-161542000D03*
X126343000Y-160042000D03*
G04 #@! TD*
G04 #@! TO.C,R44*
X130661000Y-141603000D03*
X130661000Y-143103000D03*
G04 #@! TD*
G04 #@! TO.C,R45*
X130661000Y-138706000D03*
X130661000Y-140206000D03*
G04 #@! TD*
G04 #@! TO.C,R46*
X124819000Y-161542000D03*
X124819000Y-160042000D03*
G04 #@! TD*
G04 #@! TO.C,R47*
X130915000Y-161542000D03*
X130915000Y-160042000D03*
G04 #@! TD*
D32*
G04 #@! TO.C,R48*
X131447000Y-134999000D03*
X132947000Y-134999000D03*
G04 #@! TD*
D34*
G04 #@! TO.C,C2*
X101705000Y-136777000D03*
X100205000Y-136777000D03*
G04 #@! TD*
G04 #@! TO.C,C3*
X114565000Y-153080000D03*
X116065000Y-153080000D03*
G04 #@! TD*
G04 #@! TO.C,C4*
X101693000Y-138301000D03*
X100193000Y-138301000D03*
G04 #@! TD*
G04 #@! TO.C,C5*
X120315000Y-153080000D03*
X118815000Y-153080000D03*
G04 #@! TD*
D35*
G04 #@! TO.C,C7*
X116081400Y-150080000D03*
X116081400Y-151580000D03*
G04 #@! TD*
D34*
G04 #@! TO.C,C8*
X109936000Y-155827000D03*
X108436000Y-155827000D03*
G04 #@! TD*
D35*
G04 #@! TO.C,C9*
X125073000Y-137285000D03*
X125073000Y-138785000D03*
G04 #@! TD*
D34*
G04 #@! TO.C,C12*
X119104000Y-143381000D03*
X120604000Y-143381000D03*
G04 #@! TD*
G04 #@! TO.C,C13*
X119116000Y-141857000D03*
X120616000Y-141857000D03*
G04 #@! TD*
G04 #@! TO.C,C14*
X119104000Y-140333000D03*
X120604000Y-140333000D03*
G04 #@! TD*
D36*
G04 #@! TO.C,C10*
X92053000Y-139784000D03*
X92053000Y-144184000D03*
G04 #@! TD*
G04 #@! TO.C,C11*
X106277000Y-153328000D03*
X106277000Y-148928000D03*
G04 #@! TD*
D34*
G04 #@! TO.C,C6*
X101681000Y-139825000D03*
X100181000Y-139825000D03*
G04 #@! TD*
G04 #@! TO.C,C15*
X113897000Y-156843000D03*
X112397000Y-156843000D03*
G04 #@! TD*
G04 #@! TO.C,C16*
X100435000Y-157922500D03*
X101935000Y-157922500D03*
G04 #@! TD*
G04 #@! TO.C,C17*
X118088000Y-156843000D03*
X116588000Y-156843000D03*
G04 #@! TD*
G04 #@! TO.C,C18*
X104586500Y-156525500D03*
X106086500Y-156525500D03*
G04 #@! TD*
G04 #@! TO.C,C19*
X116564000Y-155446000D03*
X118064000Y-155446000D03*
G04 #@! TD*
G04 #@! TO.C,C20*
X104586500Y-157922500D03*
X106086500Y-157922500D03*
G04 #@! TD*
D35*
G04 #@! TO.C,C21*
X159642400Y-141653800D03*
X159642400Y-143153800D03*
G04 #@! TD*
G04 #@! TO.C,C22*
X121555100Y-177989900D03*
X121555100Y-176489900D03*
G04 #@! TD*
G04 #@! TO.C,C23*
X159693200Y-161694400D03*
X159693200Y-163194400D03*
G04 #@! TD*
D33*
G04 #@! TO.C,R8*
X111230000Y-161415000D03*
X111230000Y-162915000D03*
G04 #@! TD*
D35*
G04 #@! TO.C,C1*
X78083000Y-142746000D03*
X78083000Y-144246000D03*
G04 #@! TD*
G04 #@! TO.C,C24*
X91865000Y-149980000D03*
X91865000Y-151480000D03*
G04 #@! TD*
G04 #@! TO.C,C25*
X101165000Y-172980000D03*
X101165000Y-171480000D03*
G04 #@! TD*
G04 #@! TO.C,C26*
X93365000Y-151480000D03*
X93365000Y-149980000D03*
G04 #@! TD*
G04 #@! TO.C,C27*
X81385000Y-160502000D03*
X81385000Y-159002000D03*
G04 #@! TD*
G04 #@! TO.C,C28*
X81893000Y-167384000D03*
X81893000Y-165884000D03*
G04 #@! TD*
G04 #@! TO.C,C29*
X80115000Y-165884000D03*
X80115000Y-167384000D03*
G04 #@! TD*
D37*
G04 #@! TO.C,U1*
X73295000Y-140329999D03*
X73295000Y-140830001D03*
X73295000Y-141330000D03*
X73295000Y-141829999D03*
X73295000Y-142330001D03*
D38*
X74065001Y-142600000D03*
X74565000Y-142600000D03*
X75064999Y-142600000D03*
D37*
X75835000Y-142330001D03*
X75835000Y-141829999D03*
X75835000Y-141330000D03*
X75835000Y-140830001D03*
X75835000Y-140329999D03*
D38*
X75064999Y-140060000D03*
X74565000Y-140060000D03*
X74065001Y-140060000D03*
G04 #@! TD*
D39*
G04 #@! TO.C,U3*
X80824100Y-146330002D03*
X80824100Y-146980000D03*
X80824100Y-147630002D03*
X80824100Y-148280000D03*
X84215000Y-148280000D03*
X84215000Y-147630002D03*
X84215000Y-146980000D03*
X84215000Y-146330002D03*
G04 #@! TD*
D35*
G04 #@! TO.C,C30*
X87215000Y-150530000D03*
X87215000Y-152030000D03*
G04 #@! TD*
D34*
G04 #@! TO.C,C31*
X83715000Y-154330000D03*
X82215000Y-154330000D03*
G04 #@! TD*
D33*
G04 #@! TO.C,R6*
X86965000Y-144780000D03*
X86965000Y-143280000D03*
G04 #@! TD*
G04 #@! TO.C,R7*
X86965000Y-145830000D03*
X86965000Y-147330000D03*
G04 #@! TD*
G04 #@! TO.C,R9*
X88815000Y-147330000D03*
X88815000Y-145830000D03*
G04 #@! TD*
D40*
G04 #@! TO.C,U11*
X82527500Y-140230000D03*
X82527500Y-140730000D03*
X82527500Y-141230000D03*
X82527500Y-141730000D03*
X80002500Y-141730000D03*
X80002500Y-141230000D03*
X80002500Y-140730000D03*
X80002500Y-140230000D03*
D41*
X81765000Y-141992500D03*
X81265000Y-141992500D03*
X80765000Y-141992500D03*
X81765000Y-139967500D03*
X80765000Y-139967500D03*
X81265000Y-139967500D03*
G04 #@! TD*
D42*
G04 #@! TO.C,Y1*
X85015000Y-152630000D03*
X82815000Y-152630000D03*
X82815000Y-150830000D03*
X85015000Y-150830000D03*
G04 #@! TD*
D43*
G04 #@! TO.C,U2*
X93765000Y-155630000D03*
X93765000Y-156430000D03*
X93765000Y-157230000D03*
X93765000Y-158030000D03*
X93765000Y-158830000D03*
X93765000Y-159630000D03*
X93765000Y-160430000D03*
X93765000Y-161230000D03*
D44*
X92315000Y-162680000D03*
X91515000Y-162680000D03*
X90715000Y-162680000D03*
X89915000Y-162680000D03*
X89115000Y-162680000D03*
X88315000Y-162680000D03*
X87515000Y-162680000D03*
X86715000Y-162680000D03*
D43*
X85265000Y-161230000D03*
X85265000Y-160430000D03*
X85265000Y-159630000D03*
X85265000Y-158830000D03*
X85265000Y-158030000D03*
X85265000Y-157230000D03*
X85265000Y-156430000D03*
X85265000Y-155630000D03*
D44*
X86715000Y-154180000D03*
X87515000Y-154180000D03*
X88315000Y-154180000D03*
X89115000Y-154180000D03*
X89915000Y-154180000D03*
X90715000Y-154180000D03*
X91515000Y-154180000D03*
X92315000Y-154180000D03*
G04 #@! TD*
M02*
