G04 #@! TF.GenerationSoftware,KiCad,Pcbnew,(5.0.0)*
G04 #@! TF.CreationDate,2020-08-12T20:03:17-04:00*
G04 #@! TF.ProjectId,Temple_RPi_HAT,54656D706C655F5250695F4841542E6B,rev?*
G04 #@! TF.SameCoordinates,Original*
G04 #@! TF.FileFunction,Legend,Top*
G04 #@! TF.FilePolarity,Positive*
%FSLAX46Y46*%
G04 Gerber Fmt 4.6, Leading zero omitted, Abs format (unit mm)*
G04 Created by KiCad (PCBNEW (5.0.0)) date 08/12/20 20:03:17*
%MOMM*%
%LPD*%
G01*
G04 APERTURE LIST*
%ADD10C,0.500000*%
%ADD11C,0.150000*%
%ADD12C,0.100000*%
%ADD13C,0.120000*%
%ADD14C,0.127000*%
%ADD15C,0.152400*%
%ADD16C,0.750000*%
%ADD17C,0.050000*%
G04 APERTURE END LIST*
D10*
X121682100Y-148473700D02*
G75*
G03X121682100Y-148473700I-127000J0D01*
G01*
X95496836Y-154030000D02*
G75*
G03X95496836Y-154030000I-181836J0D01*
G01*
X101320991Y-163586700D02*
G75*
G03X101320991Y-163586700I-212891J0D01*
G01*
X113153883Y-162456400D02*
G75*
G03X113153883Y-162456400I-120483J0D01*
G01*
X113607688Y-151407400D02*
G75*
G03X113607688Y-151407400I-117088J0D01*
G01*
X100058892Y-141755400D02*
G75*
G03X100058892Y-141755400I-68392J0D01*
G01*
X72749000Y-139444000D02*
G75*
G03X72749000Y-139444000I-254000J0D01*
G01*
D11*
G04 #@! TO.C,U10*
X101079000Y-159340500D02*
X101854000Y-159340500D01*
X105379000Y-163640500D02*
X104604000Y-163640500D01*
X105379000Y-159340500D02*
X104604000Y-159340500D01*
X101079000Y-163640500D02*
X101079000Y-162865500D01*
X105379000Y-163640500D02*
X105379000Y-162865500D01*
X105379000Y-159340500D02*
X105379000Y-160115500D01*
X101079000Y-159340500D02*
X101079000Y-160115500D01*
D12*
G04 #@! TO.C,M1*
X105161000Y-168097000D02*
X105161000Y-164597000D01*
X105161000Y-164597000D02*
X110061000Y-164597000D01*
X110061000Y-164597000D02*
X110061000Y-168097000D01*
X110061000Y-168097000D02*
X105161000Y-168097000D01*
G04 #@! TO.C,M2*
X105161000Y-173177000D02*
X105161000Y-169677000D01*
X105161000Y-169677000D02*
X110061000Y-169677000D01*
X110061000Y-169677000D02*
X110061000Y-173177000D01*
X110061000Y-173177000D02*
X105161000Y-173177000D01*
D13*
G04 #@! TO.C,D1*
X155615000Y-177990000D02*
X157015000Y-177990000D01*
X157015000Y-177990000D02*
X157015000Y-175190000D01*
X155615000Y-177990000D02*
X155615000Y-175190000D01*
D11*
G04 #@! TO.C,U6*
X121910000Y-147875000D02*
X122060000Y-147875000D01*
X121910000Y-144625000D02*
X122157500Y-144625000D01*
X125160000Y-144625000D02*
X124912500Y-144625000D01*
X125160000Y-147875000D02*
X124912500Y-147875000D01*
X121910000Y-147875000D02*
X121910000Y-144625000D01*
X125160000Y-147875000D02*
X125160000Y-144625000D01*
X122060000Y-147875000D02*
X122060000Y-148800000D01*
D13*
G04 #@! TO.C,D6*
X145455000Y-179514000D02*
X146855000Y-179514000D01*
X146855000Y-179514000D02*
X146855000Y-176714000D01*
X145455000Y-179514000D02*
X145455000Y-176714000D01*
G04 #@! TO.C,D7*
X143423000Y-179514000D02*
X144823000Y-179514000D01*
X144823000Y-179514000D02*
X144823000Y-176714000D01*
X143423000Y-179514000D02*
X143423000Y-176714000D01*
G04 #@! TO.C,D9*
X141391000Y-179514000D02*
X142791000Y-179514000D01*
X142791000Y-179514000D02*
X142791000Y-176714000D01*
X141391000Y-179514000D02*
X141391000Y-176714000D01*
G04 #@! TO.C,D10*
X149519000Y-179514000D02*
X150919000Y-179514000D01*
X150919000Y-179514000D02*
X150919000Y-176714000D01*
X149519000Y-179514000D02*
X149519000Y-176714000D01*
G04 #@! TO.C,F1*
X135385000Y-133142000D02*
X135385000Y-136602000D01*
X139145000Y-133142000D02*
X139145000Y-136602000D01*
G04 #@! TO.C,L1*
X100792000Y-145812000D02*
X102792000Y-145812000D01*
X102792000Y-145812000D02*
X102792000Y-154712000D01*
X102792000Y-154712000D02*
X100792000Y-154712000D01*
X97792000Y-154712000D02*
X95792000Y-154712000D01*
X95792000Y-154712000D02*
X95792000Y-145812000D01*
X95792000Y-145812000D02*
X97792000Y-145812000D01*
G04 #@! TO.C,L2*
X111635000Y-147236500D02*
X109635000Y-147236500D01*
X109635000Y-147236500D02*
X109635000Y-138336500D01*
X109635000Y-138336500D02*
X111635000Y-138336500D01*
X114635000Y-138336500D02*
X116635000Y-138336500D01*
X116635000Y-138336500D02*
X116635000Y-147236500D01*
X116635000Y-147236500D02*
X114635000Y-147236500D01*
D12*
G04 #@! TO.C,M3*
X112781000Y-168097000D02*
X112781000Y-164597000D01*
X112781000Y-164597000D02*
X117681000Y-164597000D01*
X117681000Y-164597000D02*
X117681000Y-168097000D01*
X117681000Y-168097000D02*
X112781000Y-168097000D01*
G04 #@! TO.C,SW1*
X154847000Y-129810000D02*
X154047000Y-129810000D01*
X154847000Y-129760000D02*
X154847000Y-129810000D01*
X154847000Y-127760000D02*
X154847000Y-129760000D01*
X154847000Y-125710000D02*
X154497000Y-125710000D01*
X154847000Y-127760000D02*
X154847000Y-125710000D01*
X144047000Y-129810000D02*
X154097000Y-129810000D01*
X144047000Y-129810000D02*
X144047000Y-127760000D01*
X144047000Y-125710000D02*
X154497000Y-125710000D01*
X144047000Y-126160000D02*
X144047000Y-125710000D01*
X144047000Y-125710000D02*
X144047000Y-126160000D01*
X144047000Y-127760000D02*
X144047000Y-126160000D01*
D11*
G04 #@! TO.C,U4*
X100727500Y-145046000D02*
X103177500Y-145046000D01*
X100002500Y-141746000D02*
X103177500Y-141746000D01*
G04 #@! TO.C,U5*
X112772500Y-148081000D02*
X110322500Y-148081000D01*
X113497500Y-151381000D02*
X110322500Y-151381000D01*
D12*
G04 #@! TO.C,M4*
X112781000Y-173177000D02*
X112781000Y-169677000D01*
X112781000Y-169677000D02*
X117681000Y-169677000D01*
X117681000Y-169677000D02*
X117681000Y-173177000D01*
X117681000Y-173177000D02*
X112781000Y-173177000D01*
D13*
G04 #@! TO.C,D2*
X151551000Y-177990000D02*
X152951000Y-177990000D01*
X152951000Y-177990000D02*
X152951000Y-175190000D01*
X151551000Y-177990000D02*
X151551000Y-175190000D01*
G04 #@! TO.C,D3*
X153583000Y-177990000D02*
X154983000Y-177990000D01*
X154983000Y-177990000D02*
X154983000Y-175190000D01*
X153583000Y-177990000D02*
X153583000Y-175190000D01*
G04 #@! TO.C,D4*
X98656000Y-138108000D02*
X95356000Y-138108000D01*
X95356000Y-138108000D02*
X95356000Y-143508000D01*
X98656000Y-138108000D02*
X98656000Y-143508000D01*
G04 #@! TO.C,D5*
X117073000Y-152210000D02*
X120373000Y-152210000D01*
X120373000Y-152210000D02*
X120373000Y-146810000D01*
X117073000Y-152210000D02*
X117073000Y-146810000D01*
G04 #@! TO.C,D8*
X135665000Y-146730000D02*
X138965000Y-146730000D01*
X138965000Y-146730000D02*
X138965000Y-141330000D01*
X135665000Y-146730000D02*
X135665000Y-141330000D01*
D12*
G04 #@! TO.C,rpi_Header1*
X78120000Y-125490000D02*
X78120000Y-130570000D01*
X78120000Y-130570000D02*
X128920000Y-130570000D01*
X128920000Y-130570000D02*
X128920000Y-125490000D01*
X128920000Y-125490000D02*
X78120000Y-125490000D01*
D13*
G04 #@! TO.C,SW2*
X134595000Y-128118000D02*
X134395000Y-128118000D01*
X137395000Y-123978000D02*
X137195000Y-123768000D01*
X136095000Y-123978000D02*
X136295000Y-123768000D01*
X137395000Y-125268000D02*
X137395000Y-123978000D01*
X137195000Y-123768000D02*
X136295000Y-123768000D01*
X136095000Y-123978000D02*
X136095000Y-125268000D01*
X138845000Y-125268000D02*
X133145000Y-125268000D01*
X137595000Y-128118000D02*
X135895000Y-128118000D01*
X139445000Y-127068000D02*
X139445000Y-126278000D01*
X132545000Y-126278000D02*
X132545000Y-127068000D01*
G04 #@! TO.C,U7*
X129477000Y-141530000D02*
X129477000Y-139730000D01*
X126257000Y-139730000D02*
X126257000Y-142180000D01*
G04 #@! TO.C,U8*
X73405000Y-162690000D02*
X74665000Y-162690000D01*
X80225000Y-162690000D02*
X78965000Y-162690000D01*
X73405000Y-158930000D02*
X73405000Y-162690000D01*
X80225000Y-156680000D02*
X80225000Y-162690000D01*
D11*
G04 #@! TO.C,U9*
X113017000Y-158122000D02*
X113792000Y-158122000D01*
X117317000Y-162422000D02*
X116542000Y-162422000D01*
X117317000Y-158122000D02*
X116542000Y-158122000D01*
X113017000Y-162422000D02*
X113017000Y-161647000D01*
X117317000Y-162422000D02*
X117317000Y-161647000D01*
X117317000Y-158122000D02*
X117317000Y-158897000D01*
X113017000Y-158122000D02*
X113017000Y-158897000D01*
D14*
G04 #@! TO.C,BH1*
X140275000Y-173830000D02*
X140275000Y-130830000D01*
X158055000Y-173830000D02*
X140275000Y-173830000D01*
X158055000Y-130830000D02*
X158055000Y-173830000D01*
X140275000Y-130830000D02*
X158055000Y-130830000D01*
D13*
G04 #@! TO.C,EN1*
X162109636Y-165316810D02*
X162309636Y-165316810D01*
X162109636Y-166316810D02*
X162309636Y-166316810D01*
X162109636Y-167316810D02*
X162309636Y-167316810D01*
X162109636Y-168316810D02*
X162309636Y-168316810D01*
X163359636Y-164916810D02*
X162709636Y-164916810D01*
X163359636Y-168716810D02*
X163359636Y-164916810D01*
X162709636Y-168716810D02*
X163359636Y-168716810D01*
X161609636Y-164916810D02*
X162109636Y-164916810D01*
X161609636Y-168716810D02*
X161609636Y-164916810D01*
X162109636Y-168716810D02*
X161609636Y-168716810D01*
X163509636Y-163816810D02*
X163509636Y-164316810D01*
X163509636Y-163816810D02*
X163509636Y-163816810D01*
X163509636Y-164316810D02*
X163509636Y-163816810D01*
X163509636Y-164316810D02*
X163509636Y-164316810D01*
X164109636Y-164316810D02*
X164109636Y-164316810D01*
X163109636Y-164316810D02*
X164109636Y-164316810D01*
X163109636Y-164316810D02*
X163109636Y-164316810D01*
X164109636Y-164316810D02*
X163109636Y-164316810D01*
X164109636Y-163816810D02*
X164109636Y-164716810D01*
X163109636Y-163816810D02*
X164109636Y-163816810D01*
X163509636Y-169816810D02*
X163509636Y-169316810D01*
X163509636Y-169816810D02*
X163509636Y-169816810D01*
X163509636Y-169316810D02*
X163509636Y-169816810D01*
X163509636Y-169316810D02*
X163509636Y-169316810D01*
X164109636Y-169316810D02*
X164109636Y-169316810D01*
X163109636Y-169316810D02*
X164109636Y-169316810D01*
X163109636Y-169316810D02*
X163109636Y-169316810D01*
X164109636Y-169316810D02*
X163109636Y-169316810D01*
X164109636Y-169816810D02*
X164109636Y-168916810D01*
X163109636Y-169816810D02*
X164109636Y-169816810D01*
X161209636Y-168716810D02*
X161209636Y-164916810D01*
X165009636Y-169316810D02*
G75*
G03X165009636Y-169316810I-250000J0D01*
G01*
G04 #@! TO.C,EN2*
X162109636Y-156426810D02*
X162309636Y-156426810D01*
X162109636Y-157426810D02*
X162309636Y-157426810D01*
X162109636Y-158426810D02*
X162309636Y-158426810D01*
X162109636Y-159426810D02*
X162309636Y-159426810D01*
X163359636Y-156026810D02*
X162709636Y-156026810D01*
X163359636Y-159826810D02*
X163359636Y-156026810D01*
X162709636Y-159826810D02*
X163359636Y-159826810D01*
X161609636Y-156026810D02*
X162109636Y-156026810D01*
X161609636Y-159826810D02*
X161609636Y-156026810D01*
X162109636Y-159826810D02*
X161609636Y-159826810D01*
X163509636Y-154926810D02*
X163509636Y-155426810D01*
X163509636Y-154926810D02*
X163509636Y-154926810D01*
X163509636Y-155426810D02*
X163509636Y-154926810D01*
X163509636Y-155426810D02*
X163509636Y-155426810D01*
X164109636Y-155426810D02*
X164109636Y-155426810D01*
X163109636Y-155426810D02*
X164109636Y-155426810D01*
X163109636Y-155426810D02*
X163109636Y-155426810D01*
X164109636Y-155426810D02*
X163109636Y-155426810D01*
X164109636Y-154926810D02*
X164109636Y-155826810D01*
X163109636Y-154926810D02*
X164109636Y-154926810D01*
X163509636Y-160926810D02*
X163509636Y-160426810D01*
X163509636Y-160926810D02*
X163509636Y-160926810D01*
X163509636Y-160426810D02*
X163509636Y-160926810D01*
X163509636Y-160426810D02*
X163509636Y-160426810D01*
X164109636Y-160426810D02*
X164109636Y-160426810D01*
X163109636Y-160426810D02*
X164109636Y-160426810D01*
X163109636Y-160426810D02*
X163109636Y-160426810D01*
X164109636Y-160426810D02*
X163109636Y-160426810D01*
X164109636Y-160926810D02*
X164109636Y-160026810D01*
X163109636Y-160926810D02*
X164109636Y-160926810D01*
X161209636Y-159826810D02*
X161209636Y-156026810D01*
X165009636Y-160426810D02*
G75*
G03X165009636Y-160426810I-250000J0D01*
G01*
G04 #@! TO.C,EN3*
X162109636Y-145286810D02*
X162309636Y-145286810D01*
X162109636Y-146286810D02*
X162309636Y-146286810D01*
X162109636Y-147286810D02*
X162309636Y-147286810D01*
X162109636Y-148286810D02*
X162309636Y-148286810D01*
X163359636Y-144886810D02*
X162709636Y-144886810D01*
X163359636Y-148686810D02*
X163359636Y-144886810D01*
X162709636Y-148686810D02*
X163359636Y-148686810D01*
X161609636Y-144886810D02*
X162109636Y-144886810D01*
X161609636Y-148686810D02*
X161609636Y-144886810D01*
X162109636Y-148686810D02*
X161609636Y-148686810D01*
X163509636Y-143786810D02*
X163509636Y-144286810D01*
X163509636Y-143786810D02*
X163509636Y-143786810D01*
X163509636Y-144286810D02*
X163509636Y-143786810D01*
X163509636Y-144286810D02*
X163509636Y-144286810D01*
X164109636Y-144286810D02*
X164109636Y-144286810D01*
X163109636Y-144286810D02*
X164109636Y-144286810D01*
X163109636Y-144286810D02*
X163109636Y-144286810D01*
X164109636Y-144286810D02*
X163109636Y-144286810D01*
X164109636Y-143786810D02*
X164109636Y-144686810D01*
X163109636Y-143786810D02*
X164109636Y-143786810D01*
X163509636Y-149786810D02*
X163509636Y-149286810D01*
X163509636Y-149786810D02*
X163509636Y-149786810D01*
X163509636Y-149286810D02*
X163509636Y-149786810D01*
X163509636Y-149286810D02*
X163509636Y-149286810D01*
X164109636Y-149286810D02*
X164109636Y-149286810D01*
X163109636Y-149286810D02*
X164109636Y-149286810D01*
X163109636Y-149286810D02*
X163109636Y-149286810D01*
X164109636Y-149286810D02*
X163109636Y-149286810D01*
X164109636Y-149786810D02*
X164109636Y-148886810D01*
X163109636Y-149786810D02*
X164109636Y-149786810D01*
X161209636Y-148686810D02*
X161209636Y-144886810D01*
X165009636Y-149286810D02*
G75*
G03X165009636Y-149286810I-250000J0D01*
G01*
G04 #@! TO.C,EN4*
X162109636Y-136511810D02*
X162309636Y-136511810D01*
X162109636Y-137511810D02*
X162309636Y-137511810D01*
X162109636Y-138511810D02*
X162309636Y-138511810D01*
X162109636Y-139511810D02*
X162309636Y-139511810D01*
X163359636Y-136111810D02*
X162709636Y-136111810D01*
X163359636Y-139911810D02*
X163359636Y-136111810D01*
X162709636Y-139911810D02*
X163359636Y-139911810D01*
X161609636Y-136111810D02*
X162109636Y-136111810D01*
X161609636Y-139911810D02*
X161609636Y-136111810D01*
X162109636Y-139911810D02*
X161609636Y-139911810D01*
X163509636Y-135011810D02*
X163509636Y-135511810D01*
X163509636Y-135011810D02*
X163509636Y-135011810D01*
X163509636Y-135511810D02*
X163509636Y-135011810D01*
X163509636Y-135511810D02*
X163509636Y-135511810D01*
X164109636Y-135511810D02*
X164109636Y-135511810D01*
X163109636Y-135511810D02*
X164109636Y-135511810D01*
X163109636Y-135511810D02*
X163109636Y-135511810D01*
X164109636Y-135511810D02*
X163109636Y-135511810D01*
X164109636Y-135011810D02*
X164109636Y-135911810D01*
X163109636Y-135011810D02*
X164109636Y-135011810D01*
X163509636Y-141011810D02*
X163509636Y-140511810D01*
X163509636Y-141011810D02*
X163509636Y-141011810D01*
X163509636Y-140511810D02*
X163509636Y-141011810D01*
X163509636Y-140511810D02*
X163509636Y-140511810D01*
X164109636Y-140511810D02*
X164109636Y-140511810D01*
X163109636Y-140511810D02*
X164109636Y-140511810D01*
X163109636Y-140511810D02*
X163109636Y-140511810D01*
X164109636Y-140511810D02*
X163109636Y-140511810D01*
X164109636Y-141011810D02*
X164109636Y-140111810D01*
X163109636Y-141011810D02*
X164109636Y-141011810D01*
X161209636Y-139911810D02*
X161209636Y-136111810D01*
X165009636Y-140511810D02*
G75*
G03X165009636Y-140511810I-250000J0D01*
G01*
D12*
G04 #@! TO.C,J8*
X115276000Y-174182000D02*
X115276000Y-174482000D01*
X115276000Y-174182000D02*
X114976000Y-174182000D01*
X107476000Y-174182000D02*
X107476000Y-174482000D01*
X107476000Y-174182000D02*
X107776000Y-174182000D01*
X107476000Y-179682000D02*
X107776000Y-179682000D01*
X107476000Y-179682000D02*
X107476000Y-179382000D01*
X115276000Y-179682000D02*
X114976000Y-179682000D01*
X115276000Y-179682000D02*
X115276000Y-179382000D01*
X111376000Y-174182000D02*
X111076000Y-174182000D01*
X111376000Y-174182000D02*
X111676000Y-174182000D01*
X109776000Y-174682000D02*
X109776000Y-176282000D01*
D13*
G04 #@! TO.C,D11*
X147487000Y-179514000D02*
X148887000Y-179514000D01*
X148887000Y-179514000D02*
X148887000Y-176714000D01*
X147487000Y-179514000D02*
X147487000Y-176714000D01*
G04 #@! TO.C,R1*
X80565000Y-154510000D02*
X79565000Y-154510000D01*
X79565000Y-153150000D02*
X80565000Y-153150000D01*
G04 #@! TO.C,R2*
X80565000Y-152070000D02*
X79565000Y-152070000D01*
X79565000Y-150710000D02*
X80565000Y-150710000D01*
G04 #@! TO.C,R3*
X136167000Y-160292000D02*
X136167000Y-161292000D01*
X134807000Y-161292000D02*
X134807000Y-160292000D01*
G04 #@! TO.C,R4*
X128711000Y-161292000D02*
X128711000Y-160292000D01*
X130071000Y-160292000D02*
X130071000Y-161292000D01*
G04 #@! TO.C,R5*
X82827000Y-162935000D02*
X82827000Y-163935000D01*
X81467000Y-163935000D02*
X81467000Y-162935000D01*
G04 #@! TO.C,R29*
X133119000Y-160292000D02*
X133119000Y-161292000D01*
X131759000Y-161292000D02*
X131759000Y-160292000D01*
G04 #@! TO.C,R30*
X106576000Y-141103000D02*
X106576000Y-142103000D01*
X105216000Y-142103000D02*
X105216000Y-141103000D01*
G04 #@! TO.C,R31*
X106576000Y-143758000D02*
X106576000Y-144758000D01*
X105216000Y-144758000D02*
X105216000Y-143758000D01*
G04 #@! TO.C,R32*
X111735000Y-153680000D02*
X111735000Y-152680000D01*
X113095000Y-152680000D02*
X113095000Y-153680000D01*
G04 #@! TO.C,R33*
X111195000Y-152680000D02*
X111195000Y-153680000D01*
X109835000Y-153680000D02*
X109835000Y-152680000D01*
G04 #@! TO.C,R34*
X134643000Y-160292000D02*
X134643000Y-161292000D01*
X133283000Y-161292000D02*
X133283000Y-160292000D01*
G04 #@! TO.C,R35*
X122107000Y-152124000D02*
X122107000Y-151124000D01*
X123467000Y-151124000D02*
X123467000Y-152124000D01*
G04 #@! TO.C,R36*
X123885000Y-152148000D02*
X123885000Y-151148000D01*
X125245000Y-151148000D02*
X125245000Y-152148000D01*
G04 #@! TO.C,R37*
X105216000Y-138051000D02*
X105216000Y-137051000D01*
X106576000Y-137051000D02*
X106576000Y-138051000D01*
G04 #@! TO.C,R38*
X128379000Y-137584000D02*
X127379000Y-137584000D01*
X127379000Y-136224000D02*
X128379000Y-136224000D01*
G04 #@! TO.C,R39*
X126171000Y-148084000D02*
X126171000Y-147084000D01*
X127531000Y-147084000D02*
X127531000Y-148084000D01*
G04 #@! TO.C,R40*
X122361000Y-141480000D02*
X122361000Y-140480000D01*
X123721000Y-140480000D02*
X123721000Y-141480000D01*
G04 #@! TO.C,R41*
X126171000Y-145290000D02*
X126171000Y-144290000D01*
X127531000Y-144290000D02*
X127531000Y-145290000D01*
G04 #@! TO.C,R42*
X128547000Y-160292000D02*
X128547000Y-161292000D01*
X127187000Y-161292000D02*
X127187000Y-160292000D01*
G04 #@! TO.C,R43*
X127023000Y-160292000D02*
X127023000Y-161292000D01*
X125663000Y-161292000D02*
X125663000Y-160292000D01*
G04 #@! TO.C,R44*
X129981000Y-142853000D02*
X129981000Y-141853000D01*
X131341000Y-141853000D02*
X131341000Y-142853000D01*
G04 #@! TO.C,R45*
X129981000Y-139956000D02*
X129981000Y-138956000D01*
X131341000Y-138956000D02*
X131341000Y-139956000D01*
G04 #@! TO.C,R46*
X125499000Y-160292000D02*
X125499000Y-161292000D01*
X124139000Y-161292000D02*
X124139000Y-160292000D01*
G04 #@! TO.C,R47*
X131595000Y-160292000D02*
X131595000Y-161292000D01*
X130235000Y-161292000D02*
X130235000Y-160292000D01*
G04 #@! TO.C,R48*
X132697000Y-135679000D02*
X131697000Y-135679000D01*
X131697000Y-134319000D02*
X132697000Y-134319000D01*
G04 #@! TO.C,C2*
X101305000Y-137377000D02*
X100605000Y-137377000D01*
X100605000Y-136177000D02*
X101305000Y-136177000D01*
G04 #@! TO.C,C3*
X114965000Y-152480000D02*
X115665000Y-152480000D01*
X115665000Y-153680000D02*
X114965000Y-153680000D01*
G04 #@! TO.C,C4*
X101293000Y-138901000D02*
X100593000Y-138901000D01*
X100593000Y-137701000D02*
X101293000Y-137701000D01*
G04 #@! TO.C,C5*
X119915000Y-153680000D02*
X119215000Y-153680000D01*
X119215000Y-152480000D02*
X119915000Y-152480000D01*
G04 #@! TO.C,C7*
X116681400Y-150480000D02*
X116681400Y-151180000D01*
X115481400Y-151180000D02*
X115481400Y-150480000D01*
G04 #@! TO.C,C8*
X109536000Y-156427000D02*
X108836000Y-156427000D01*
X108836000Y-155227000D02*
X109536000Y-155227000D01*
G04 #@! TO.C,C9*
X125673000Y-137685000D02*
X125673000Y-138385000D01*
X124473000Y-138385000D02*
X124473000Y-137685000D01*
G04 #@! TO.C,C12*
X119504000Y-142781000D02*
X120204000Y-142781000D01*
X120204000Y-143981000D02*
X119504000Y-143981000D01*
G04 #@! TO.C,C13*
X119516000Y-141257000D02*
X120216000Y-141257000D01*
X120216000Y-142457000D02*
X119516000Y-142457000D01*
G04 #@! TO.C,C14*
X119504000Y-139733000D02*
X120204000Y-139733000D01*
X120204000Y-140933000D02*
X119504000Y-140933000D01*
G04 #@! TO.C,C10*
X94743000Y-144654000D02*
X93193000Y-144654000D01*
X89413000Y-144654000D02*
X90963000Y-144654000D01*
X90173000Y-139314000D02*
X90963000Y-139314000D01*
X93983000Y-139314000D02*
X93193000Y-139314000D01*
X94743000Y-144654000D02*
X94743000Y-140074000D01*
X94743000Y-140074000D02*
X93983000Y-139314000D01*
X90173000Y-139314000D02*
X89413000Y-140074000D01*
X89413000Y-140074000D02*
X89413000Y-144654000D01*
G04 #@! TO.C,C11*
X103587000Y-148458000D02*
X105137000Y-148458000D01*
X108917000Y-148458000D02*
X107367000Y-148458000D01*
X108157000Y-153798000D02*
X107367000Y-153798000D01*
X104347000Y-153798000D02*
X105137000Y-153798000D01*
X103587000Y-148458000D02*
X103587000Y-153038000D01*
X103587000Y-153038000D02*
X104347000Y-153798000D01*
X108157000Y-153798000D02*
X108917000Y-153038000D01*
X108917000Y-153038000D02*
X108917000Y-148458000D01*
G04 #@! TO.C,C6*
X101281000Y-140425000D02*
X100581000Y-140425000D01*
X100581000Y-139225000D02*
X101281000Y-139225000D01*
G04 #@! TO.C,C15*
X113497000Y-157443000D02*
X112797000Y-157443000D01*
X112797000Y-156243000D02*
X113497000Y-156243000D01*
G04 #@! TO.C,C16*
X100835000Y-157322500D02*
X101535000Y-157322500D01*
X101535000Y-158522500D02*
X100835000Y-158522500D01*
G04 #@! TO.C,C17*
X117688000Y-157443000D02*
X116988000Y-157443000D01*
X116988000Y-156243000D02*
X117688000Y-156243000D01*
G04 #@! TO.C,C18*
X104986500Y-155925500D02*
X105686500Y-155925500D01*
X105686500Y-157125500D02*
X104986500Y-157125500D01*
G04 #@! TO.C,C19*
X116964000Y-154846000D02*
X117664000Y-154846000D01*
X117664000Y-156046000D02*
X116964000Y-156046000D01*
G04 #@! TO.C,C20*
X104986500Y-157322500D02*
X105686500Y-157322500D01*
X105686500Y-158522500D02*
X104986500Y-158522500D01*
G04 #@! TO.C,C21*
X160242400Y-142053800D02*
X160242400Y-142753800D01*
X159042400Y-142753800D02*
X159042400Y-142053800D01*
G04 #@! TO.C,C22*
X120955100Y-177589900D02*
X120955100Y-176889900D01*
X122155100Y-176889900D02*
X122155100Y-177589900D01*
G04 #@! TO.C,C23*
X160293200Y-162094400D02*
X160293200Y-162794400D01*
X159093200Y-162794400D02*
X159093200Y-162094400D01*
G04 #@! TO.C,R8*
X110550000Y-162665000D02*
X110550000Y-161665000D01*
X111910000Y-161665000D02*
X111910000Y-162665000D01*
G04 #@! TO.C,C1*
X78683000Y-143146000D02*
X78683000Y-143846000D01*
X77483000Y-143846000D02*
X77483000Y-143146000D01*
G04 #@! TO.C,C24*
X92465000Y-150380000D02*
X92465000Y-151080000D01*
X91265000Y-151080000D02*
X91265000Y-150380000D01*
G04 #@! TO.C,C25*
X100565000Y-172580000D02*
X100565000Y-171880000D01*
X101765000Y-171880000D02*
X101765000Y-172580000D01*
G04 #@! TO.C,C26*
X92765000Y-151080000D02*
X92765000Y-150380000D01*
X93965000Y-150380000D02*
X93965000Y-151080000D01*
G04 #@! TO.C,C27*
X80785000Y-160102000D02*
X80785000Y-159402000D01*
X81985000Y-159402000D02*
X81985000Y-160102000D01*
G04 #@! TO.C,C28*
X81293000Y-166984000D02*
X81293000Y-166284000D01*
X82493000Y-166284000D02*
X82493000Y-166984000D01*
G04 #@! TO.C,C29*
X80715000Y-166284000D02*
X80715000Y-166984000D01*
X79515000Y-166984000D02*
X79515000Y-166284000D01*
D15*
G04 #@! TO.C,U1*
X72888600Y-143006400D02*
X73696220Y-143006400D01*
X76241400Y-143006400D02*
X76241400Y-142698781D01*
X76241400Y-139653600D02*
X75433780Y-139653600D01*
X72888600Y-139653600D02*
X72888600Y-139961219D01*
X72888600Y-142698781D02*
X72888600Y-143006400D01*
X75433780Y-143006400D02*
X76241400Y-143006400D01*
X76241400Y-139961219D02*
X76241400Y-139653600D01*
X73696220Y-139653600D02*
X72888600Y-139653600D01*
X76520800Y-141639499D02*
X76520800Y-142020499D01*
X76520800Y-142020499D02*
X76266800Y-142020499D01*
X76266800Y-142020499D02*
X76266800Y-141639499D01*
X76266800Y-141639499D02*
X76520800Y-141639499D01*
G04 #@! TO.C,U3*
X80944750Y-149006801D02*
X84094350Y-149006801D01*
X84094350Y-149006801D02*
X84094350Y-148790540D01*
X84094350Y-145603201D02*
X80944750Y-145603201D01*
X80944750Y-145603201D02*
X80944750Y-145819462D01*
X80944750Y-148790540D02*
X80944750Y-149006801D01*
X84094350Y-145819462D02*
X84094350Y-145603201D01*
D13*
G04 #@! TO.C,C30*
X87815000Y-150930000D02*
X87815000Y-151630000D01*
X86615000Y-151630000D02*
X86615000Y-150930000D01*
G04 #@! TO.C,C31*
X83315000Y-154930000D02*
X82615000Y-154930000D01*
X82615000Y-153730000D02*
X83315000Y-153730000D01*
G04 #@! TO.C,R6*
X87645000Y-143530000D02*
X87645000Y-144530000D01*
X86285000Y-144530000D02*
X86285000Y-143530000D01*
G04 #@! TO.C,R7*
X86285000Y-147080000D02*
X86285000Y-146080000D01*
X87645000Y-146080000D02*
X87645000Y-147080000D01*
G04 #@! TO.C,R9*
X89495000Y-146080000D02*
X89495000Y-147080000D01*
X88135000Y-147080000D02*
X88135000Y-146080000D01*
D12*
G04 #@! TO.C,U11*
X82865000Y-139630000D02*
X82865000Y-139850000D01*
X82145000Y-139630000D02*
X82865000Y-139630000D01*
X82865000Y-142330000D02*
X82145000Y-142330000D01*
X82865000Y-142110000D02*
X82865000Y-142330000D01*
X79665000Y-142330000D02*
X79665000Y-142110000D01*
X79665000Y-142330000D02*
X80385000Y-142330000D01*
X79565000Y-139630000D02*
X80385000Y-139630000D01*
D13*
G04 #@! TO.C,Y1*
X85865000Y-150130000D02*
X81965000Y-150130000D01*
X85865000Y-153330000D02*
X85865000Y-150130000D01*
D11*
G04 #@! TO.C,U2*
X92915000Y-154805000D02*
X92915000Y-153580000D01*
X93140000Y-162055000D02*
X93140000Y-161755000D01*
X85890000Y-162055000D02*
X85890000Y-161755000D01*
X85890000Y-154805000D02*
X85890000Y-155105000D01*
X93140000Y-154805000D02*
X93140000Y-155105000D01*
X85890000Y-154805000D02*
X86190000Y-154805000D01*
X85890000Y-162055000D02*
X86190000Y-162055000D01*
X93140000Y-162055000D02*
X92840000Y-162055000D01*
X93140000Y-154805000D02*
X92915000Y-154805000D01*
G04 #@! TO.C,*
D16*
D11*
D16*
X150560142Y-157255142D02*
X150560142Y-158969428D01*
X150560142Y-158112285D02*
X147560142Y-158112285D01*
X147988714Y-158398000D01*
X148274428Y-158683714D01*
X148417285Y-158969428D01*
X147560142Y-154683714D02*
X147560142Y-155255142D01*
X147703000Y-155540857D01*
X147845857Y-155683714D01*
X148274428Y-155969428D01*
X148845857Y-156112285D01*
X149988714Y-156112285D01*
X150274428Y-155969428D01*
X150417285Y-155826571D01*
X150560142Y-155540857D01*
X150560142Y-154969428D01*
X150417285Y-154683714D01*
X150274428Y-154540857D01*
X149988714Y-154398000D01*
X149274428Y-154398000D01*
X148988714Y-154540857D01*
X148845857Y-154683714D01*
X148703000Y-154969428D01*
X148703000Y-155540857D01*
X148845857Y-155826571D01*
X148988714Y-155969428D01*
X149274428Y-156112285D01*
X147560142Y-153398000D02*
X147560142Y-151540857D01*
X148703000Y-152540857D01*
X148703000Y-152112285D01*
X148845857Y-151826571D01*
X148988714Y-151683714D01*
X149274428Y-151540857D01*
X149988714Y-151540857D01*
X150274428Y-151683714D01*
X150417285Y-151826571D01*
X150560142Y-152112285D01*
X150560142Y-152969428D01*
X150417285Y-153255142D01*
X150274428Y-153398000D01*
X148560142Y-148969428D02*
X150560142Y-148969428D01*
X147417285Y-149683714D02*
X149560142Y-150398000D01*
X149560142Y-148540857D01*
X147560142Y-146826571D02*
X147560142Y-146540857D01*
X147703000Y-146255142D01*
X147845857Y-146112285D01*
X148131571Y-145969428D01*
X148703000Y-145826571D01*
X149417285Y-145826571D01*
X149988714Y-145969428D01*
X150274428Y-146112285D01*
X150417285Y-146255142D01*
X150560142Y-146540857D01*
X150560142Y-146826571D01*
X150417285Y-147112285D01*
X150274428Y-147255142D01*
X149988714Y-147398000D01*
X149417285Y-147540857D01*
X148703000Y-147540857D01*
X148131571Y-147398000D01*
X147845857Y-147255142D01*
X147703000Y-147112285D01*
X147560142Y-146826571D01*
D11*
D16*
G04 #@! TO.C,U10*
D12*
X99555190Y-162109547D02*
X99959952Y-162109547D01*
X100007571Y-162085738D01*
X100031380Y-162061928D01*
X100055190Y-162014309D01*
X100055190Y-161919071D01*
X100031380Y-161871452D01*
X100007571Y-161847642D01*
X99959952Y-161823833D01*
X99555190Y-161823833D01*
X100055190Y-161323833D02*
X100055190Y-161609547D01*
X100055190Y-161466690D02*
X99555190Y-161466690D01*
X99626619Y-161514309D01*
X99674238Y-161561928D01*
X99698047Y-161609547D01*
X99555190Y-161014309D02*
X99555190Y-160966690D01*
X99579000Y-160919071D01*
X99602809Y-160895261D01*
X99650428Y-160871452D01*
X99745666Y-160847642D01*
X99864714Y-160847642D01*
X99959952Y-160871452D01*
X100007571Y-160895261D01*
X100031380Y-160919071D01*
X100055190Y-160966690D01*
X100055190Y-161014309D01*
X100031380Y-161061928D01*
X100007571Y-161085738D01*
X99959952Y-161109547D01*
X99864714Y-161133357D01*
X99745666Y-161133357D01*
X99650428Y-161109547D01*
X99602809Y-161085738D01*
X99579000Y-161061928D01*
X99555190Y-161014309D01*
G04 #@! TO.C,M1*
D11*
X107980047Y-167318428D02*
X108741952Y-167318428D01*
X108361000Y-167699380D02*
X108361000Y-166937476D01*
X106480047Y-167318428D02*
X107241952Y-167318428D01*
G04 #@! TO.C,M2*
X107980047Y-172398428D02*
X108741952Y-172398428D01*
X108361000Y-172779380D02*
X108361000Y-172017476D01*
X106480047Y-172398428D02*
X107241952Y-172398428D01*
G04 #@! TO.C,D1*
D12*
X156676904Y-173308476D02*
X155876904Y-173308476D01*
X155876904Y-173118000D01*
X155915000Y-173003714D01*
X155991190Y-172927523D01*
X156067380Y-172889428D01*
X156219761Y-172851333D01*
X156334047Y-172851333D01*
X156486428Y-172889428D01*
X156562619Y-172927523D01*
X156638809Y-173003714D01*
X156676904Y-173118000D01*
X156676904Y-173308476D01*
X156676904Y-172089428D02*
X156676904Y-172546571D01*
X156676904Y-172318000D02*
X155876904Y-172318000D01*
X155991190Y-172394190D01*
X156067380Y-172470380D01*
X156105476Y-172546571D01*
G04 #@! TO.C,MK1*
D11*
X117260476Y-122782380D02*
X117260476Y-121782380D01*
X117593809Y-122496666D01*
X117927142Y-121782380D01*
X117927142Y-122782380D01*
X118403333Y-122782380D02*
X118403333Y-121782380D01*
X118974761Y-122782380D02*
X118546190Y-122210952D01*
X118974761Y-121782380D02*
X118403333Y-122353809D01*
X119927142Y-122782380D02*
X119355714Y-122782380D01*
X119641428Y-122782380D02*
X119641428Y-121782380D01*
X119546190Y-121925238D01*
X119450952Y-122020476D01*
X119355714Y-122068095D01*
G04 #@! TO.C,U6*
D12*
X120989190Y-146630952D02*
X121393952Y-146630952D01*
X121441571Y-146607142D01*
X121465380Y-146583333D01*
X121489190Y-146535714D01*
X121489190Y-146440476D01*
X121465380Y-146392857D01*
X121441571Y-146369047D01*
X121393952Y-146345238D01*
X120989190Y-146345238D01*
X120989190Y-145892857D02*
X120989190Y-145988095D01*
X121013000Y-146035714D01*
X121036809Y-146059523D01*
X121108238Y-146107142D01*
X121203476Y-146130952D01*
X121393952Y-146130952D01*
X121441571Y-146107142D01*
X121465380Y-146083333D01*
X121489190Y-146035714D01*
X121489190Y-145940476D01*
X121465380Y-145892857D01*
X121441571Y-145869047D01*
X121393952Y-145845238D01*
X121274904Y-145845238D01*
X121227285Y-145869047D01*
X121203476Y-145892857D01*
X121179666Y-145940476D01*
X121179666Y-146035714D01*
X121203476Y-146083333D01*
X121227285Y-146107142D01*
X121274904Y-146130952D01*
G04 #@! TO.C,D6*
X146516904Y-175340476D02*
X145716904Y-175340476D01*
X145716904Y-175150000D01*
X145755000Y-175035714D01*
X145831190Y-174959523D01*
X145907380Y-174921428D01*
X146059761Y-174883333D01*
X146174047Y-174883333D01*
X146326428Y-174921428D01*
X146402619Y-174959523D01*
X146478809Y-175035714D01*
X146516904Y-175150000D01*
X146516904Y-175340476D01*
X145716904Y-174197619D02*
X145716904Y-174350000D01*
X145755000Y-174426190D01*
X145793095Y-174464285D01*
X145907380Y-174540476D01*
X146059761Y-174578571D01*
X146364523Y-174578571D01*
X146440714Y-174540476D01*
X146478809Y-174502380D01*
X146516904Y-174426190D01*
X146516904Y-174273809D01*
X146478809Y-174197619D01*
X146440714Y-174159523D01*
X146364523Y-174121428D01*
X146174047Y-174121428D01*
X146097857Y-174159523D01*
X146059761Y-174197619D01*
X146021666Y-174273809D01*
X146021666Y-174426190D01*
X146059761Y-174502380D01*
X146097857Y-174540476D01*
X146174047Y-174578571D01*
G04 #@! TO.C,D7*
X144484904Y-175340476D02*
X143684904Y-175340476D01*
X143684904Y-175150000D01*
X143723000Y-175035714D01*
X143799190Y-174959523D01*
X143875380Y-174921428D01*
X144027761Y-174883333D01*
X144142047Y-174883333D01*
X144294428Y-174921428D01*
X144370619Y-174959523D01*
X144446809Y-175035714D01*
X144484904Y-175150000D01*
X144484904Y-175340476D01*
X143684904Y-174616666D02*
X143684904Y-174083333D01*
X144484904Y-174426190D01*
G04 #@! TO.C,D9*
X142452904Y-175340476D02*
X141652904Y-175340476D01*
X141652904Y-175150000D01*
X141691000Y-175035714D01*
X141767190Y-174959523D01*
X141843380Y-174921428D01*
X141995761Y-174883333D01*
X142110047Y-174883333D01*
X142262428Y-174921428D01*
X142338619Y-174959523D01*
X142414809Y-175035714D01*
X142452904Y-175150000D01*
X142452904Y-175340476D01*
X142452904Y-174502380D02*
X142452904Y-174350000D01*
X142414809Y-174273809D01*
X142376714Y-174235714D01*
X142262428Y-174159523D01*
X142110047Y-174121428D01*
X141805285Y-174121428D01*
X141729095Y-174159523D01*
X141691000Y-174197619D01*
X141652904Y-174273809D01*
X141652904Y-174426190D01*
X141691000Y-174502380D01*
X141729095Y-174540476D01*
X141805285Y-174578571D01*
X141995761Y-174578571D01*
X142071952Y-174540476D01*
X142110047Y-174502380D01*
X142148142Y-174426190D01*
X142148142Y-174273809D01*
X142110047Y-174197619D01*
X142071952Y-174159523D01*
X141995761Y-174121428D01*
G04 #@! TO.C,D10*
X150580904Y-175478571D02*
X149780904Y-175478571D01*
X149780904Y-175335714D01*
X149819000Y-175250000D01*
X149895190Y-175192857D01*
X149971380Y-175164285D01*
X150123761Y-175135714D01*
X150238047Y-175135714D01*
X150390428Y-175164285D01*
X150466619Y-175192857D01*
X150542809Y-175250000D01*
X150580904Y-175335714D01*
X150580904Y-175478571D01*
X150580904Y-174564285D02*
X150580904Y-174907142D01*
X150580904Y-174735714D02*
X149780904Y-174735714D01*
X149895190Y-174792857D01*
X149971380Y-174850000D01*
X150009476Y-174907142D01*
X149780904Y-174192857D02*
X149780904Y-174135714D01*
X149819000Y-174078571D01*
X149857095Y-174050000D01*
X149933285Y-174021428D01*
X150085666Y-173992857D01*
X150276142Y-173992857D01*
X150428523Y-174021428D01*
X150504714Y-174050000D01*
X150542809Y-174078571D01*
X150580904Y-174135714D01*
X150580904Y-174192857D01*
X150542809Y-174250000D01*
X150504714Y-174278571D01*
X150428523Y-174307142D01*
X150276142Y-174335714D01*
X150085666Y-174335714D01*
X149933285Y-174307142D01*
X149857095Y-174278571D01*
X149819000Y-174250000D01*
X149780904Y-174192857D01*
G04 #@! TO.C,F1*
D11*
X134399571Y-132665333D02*
X134399571Y-132998666D01*
X134923380Y-132998666D02*
X133923380Y-132998666D01*
X133923380Y-132522476D01*
X134923380Y-131617714D02*
X134923380Y-132189142D01*
X134923380Y-131903428D02*
X133923380Y-131903428D01*
X134066238Y-131998666D01*
X134161476Y-132093904D01*
X134209095Y-132189142D01*
G04 #@! TO.C,L1*
D12*
X95581190Y-146258333D02*
X95581190Y-146496428D01*
X95081190Y-146496428D01*
X95581190Y-145829761D02*
X95581190Y-146115476D01*
X95581190Y-145972619D02*
X95081190Y-145972619D01*
X95152619Y-146020238D01*
X95200238Y-146067857D01*
X95224047Y-146115476D01*
G04 #@! TO.C,L2*
X114829666Y-148052190D02*
X114591571Y-148052190D01*
X114591571Y-147552190D01*
X114972523Y-147599809D02*
X114996333Y-147576000D01*
X115043952Y-147552190D01*
X115163000Y-147552190D01*
X115210619Y-147576000D01*
X115234428Y-147599809D01*
X115258238Y-147647428D01*
X115258238Y-147695047D01*
X115234428Y-147766476D01*
X114948714Y-148052190D01*
X115258238Y-148052190D01*
G04 #@! TO.C,M3*
D11*
X115600047Y-167318428D02*
X116361952Y-167318428D01*
X115981000Y-167699380D02*
X115981000Y-166937476D01*
X114100047Y-167318428D02*
X114861952Y-167318428D01*
G04 #@! TO.C,SW1*
X143721761Y-129093333D02*
X143769380Y-128950476D01*
X143769380Y-128712380D01*
X143721761Y-128617142D01*
X143674142Y-128569523D01*
X143578904Y-128521904D01*
X143483666Y-128521904D01*
X143388428Y-128569523D01*
X143340809Y-128617142D01*
X143293190Y-128712380D01*
X143245571Y-128902857D01*
X143197952Y-128998095D01*
X143150333Y-129045714D01*
X143055095Y-129093333D01*
X142959857Y-129093333D01*
X142864619Y-129045714D01*
X142817000Y-128998095D01*
X142769380Y-128902857D01*
X142769380Y-128664761D01*
X142817000Y-128521904D01*
X142769380Y-128188571D02*
X143769380Y-127950476D01*
X143055095Y-127760000D01*
X143769380Y-127569523D01*
X142769380Y-127331428D01*
X143769380Y-126426666D02*
X143769380Y-126998095D01*
X143769380Y-126712380D02*
X142769380Y-126712380D01*
X142912238Y-126807619D01*
X143007476Y-126902857D01*
X143055095Y-126998095D01*
G04 #@! TO.C,U4*
D12*
X100054047Y-140948190D02*
X100054047Y-141352952D01*
X100077857Y-141400571D01*
X100101666Y-141424380D01*
X100149285Y-141448190D01*
X100244523Y-141448190D01*
X100292142Y-141424380D01*
X100315952Y-141400571D01*
X100339761Y-141352952D01*
X100339761Y-140948190D01*
X100792142Y-141114857D02*
X100792142Y-141448190D01*
X100673095Y-140924380D02*
X100554047Y-141281523D01*
X100863571Y-141281523D01*
G04 #@! TO.C,U5*
X108984047Y-147456190D02*
X108984047Y-147860952D01*
X109007857Y-147908571D01*
X109031666Y-147932380D01*
X109079285Y-147956190D01*
X109174523Y-147956190D01*
X109222142Y-147932380D01*
X109245952Y-147908571D01*
X109269761Y-147860952D01*
X109269761Y-147456190D01*
X109745952Y-147456190D02*
X109507857Y-147456190D01*
X109484047Y-147694285D01*
X109507857Y-147670476D01*
X109555476Y-147646666D01*
X109674523Y-147646666D01*
X109722142Y-147670476D01*
X109745952Y-147694285D01*
X109769761Y-147741904D01*
X109769761Y-147860952D01*
X109745952Y-147908571D01*
X109722142Y-147932380D01*
X109674523Y-147956190D01*
X109555476Y-147956190D01*
X109507857Y-147932380D01*
X109484047Y-147908571D01*
G04 #@! TO.C,M4*
D11*
X115600047Y-172398428D02*
X116361952Y-172398428D01*
X115981000Y-172779380D02*
X115981000Y-172017476D01*
X114100047Y-172398428D02*
X114861952Y-172398428D01*
G04 #@! TO.C,D2*
D12*
X152612904Y-173816476D02*
X151812904Y-173816476D01*
X151812904Y-173626000D01*
X151851000Y-173511714D01*
X151927190Y-173435523D01*
X152003380Y-173397428D01*
X152155761Y-173359333D01*
X152270047Y-173359333D01*
X152422428Y-173397428D01*
X152498619Y-173435523D01*
X152574809Y-173511714D01*
X152612904Y-173626000D01*
X152612904Y-173816476D01*
X151889095Y-173054571D02*
X151851000Y-173016476D01*
X151812904Y-172940285D01*
X151812904Y-172749809D01*
X151851000Y-172673619D01*
X151889095Y-172635523D01*
X151965285Y-172597428D01*
X152041476Y-172597428D01*
X152155761Y-172635523D01*
X152612904Y-173092666D01*
X152612904Y-172597428D01*
G04 #@! TO.C,D3*
X154644904Y-173308476D02*
X153844904Y-173308476D01*
X153844904Y-173118000D01*
X153883000Y-173003714D01*
X153959190Y-172927523D01*
X154035380Y-172889428D01*
X154187761Y-172851333D01*
X154302047Y-172851333D01*
X154454428Y-172889428D01*
X154530619Y-172927523D01*
X154606809Y-173003714D01*
X154644904Y-173118000D01*
X154644904Y-173308476D01*
X153844904Y-172584666D02*
X153844904Y-172089428D01*
X154149666Y-172356095D01*
X154149666Y-172241809D01*
X154187761Y-172165619D01*
X154225857Y-172127523D01*
X154302047Y-172089428D01*
X154492523Y-172089428D01*
X154568714Y-172127523D01*
X154606809Y-172165619D01*
X154644904Y-172241809D01*
X154644904Y-172470380D01*
X154606809Y-172546571D01*
X154568714Y-172584666D01*
G04 #@! TO.C,D4*
X95581190Y-144766047D02*
X95081190Y-144766047D01*
X95081190Y-144647000D01*
X95105000Y-144575571D01*
X95152619Y-144527952D01*
X95200238Y-144504142D01*
X95295476Y-144480333D01*
X95366904Y-144480333D01*
X95462142Y-144504142D01*
X95509761Y-144527952D01*
X95557380Y-144575571D01*
X95581190Y-144647000D01*
X95581190Y-144766047D01*
X95247857Y-144051761D02*
X95581190Y-144051761D01*
X95057380Y-144170809D02*
X95414523Y-144289857D01*
X95414523Y-143980333D01*
G04 #@! TO.C,D5*
X116791190Y-148799047D02*
X116291190Y-148799047D01*
X116291190Y-148680000D01*
X116315000Y-148608571D01*
X116362619Y-148560952D01*
X116410238Y-148537142D01*
X116505476Y-148513333D01*
X116576904Y-148513333D01*
X116672142Y-148537142D01*
X116719761Y-148560952D01*
X116767380Y-148608571D01*
X116791190Y-148680000D01*
X116791190Y-148799047D01*
X116291190Y-148060952D02*
X116291190Y-148299047D01*
X116529285Y-148322857D01*
X116505476Y-148299047D01*
X116481666Y-148251428D01*
X116481666Y-148132380D01*
X116505476Y-148084761D01*
X116529285Y-148060952D01*
X116576904Y-148037142D01*
X116695952Y-148037142D01*
X116743571Y-148060952D01*
X116767380Y-148084761D01*
X116791190Y-148132380D01*
X116791190Y-148251428D01*
X116767380Y-148299047D01*
X116743571Y-148322857D01*
G04 #@! TO.C,D8*
D11*
X135267380Y-144068095D02*
X134267380Y-144068095D01*
X134267380Y-143830000D01*
X134315000Y-143687142D01*
X134410238Y-143591904D01*
X134505476Y-143544285D01*
X134695952Y-143496666D01*
X134838809Y-143496666D01*
X135029285Y-143544285D01*
X135124523Y-143591904D01*
X135219761Y-143687142D01*
X135267380Y-143830000D01*
X135267380Y-144068095D01*
X134695952Y-142925238D02*
X134648333Y-143020476D01*
X134600714Y-143068095D01*
X134505476Y-143115714D01*
X134457857Y-143115714D01*
X134362619Y-143068095D01*
X134315000Y-143020476D01*
X134267380Y-142925238D01*
X134267380Y-142734761D01*
X134315000Y-142639523D01*
X134362619Y-142591904D01*
X134457857Y-142544285D01*
X134505476Y-142544285D01*
X134600714Y-142591904D01*
X134648333Y-142639523D01*
X134695952Y-142734761D01*
X134695952Y-142925238D01*
X134743571Y-143020476D01*
X134791190Y-143068095D01*
X134886428Y-143115714D01*
X135076904Y-143115714D01*
X135172142Y-143068095D01*
X135219761Y-143020476D01*
X135267380Y-142925238D01*
X135267380Y-142734761D01*
X135219761Y-142639523D01*
X135172142Y-142591904D01*
X135076904Y-142544285D01*
X134886428Y-142544285D01*
X134791190Y-142591904D01*
X134743571Y-142639523D01*
X134695952Y-142734761D01*
G04 #@! TO.C,SW2*
X134661666Y-130602761D02*
X134804523Y-130650380D01*
X135042619Y-130650380D01*
X135137857Y-130602761D01*
X135185476Y-130555142D01*
X135233095Y-130459904D01*
X135233095Y-130364666D01*
X135185476Y-130269428D01*
X135137857Y-130221809D01*
X135042619Y-130174190D01*
X134852142Y-130126571D01*
X134756904Y-130078952D01*
X134709285Y-130031333D01*
X134661666Y-129936095D01*
X134661666Y-129840857D01*
X134709285Y-129745619D01*
X134756904Y-129698000D01*
X134852142Y-129650380D01*
X135090238Y-129650380D01*
X135233095Y-129698000D01*
X135566428Y-129650380D02*
X135804523Y-130650380D01*
X135995000Y-129936095D01*
X136185476Y-130650380D01*
X136423571Y-129650380D01*
X136756904Y-129745619D02*
X136804523Y-129698000D01*
X136899761Y-129650380D01*
X137137857Y-129650380D01*
X137233095Y-129698000D01*
X137280714Y-129745619D01*
X137328333Y-129840857D01*
X137328333Y-129936095D01*
X137280714Y-130078952D01*
X136709285Y-130650380D01*
X137328333Y-130650380D01*
G04 #@! TO.C,U7*
D12*
X125241190Y-141010952D02*
X125645952Y-141010952D01*
X125693571Y-140987142D01*
X125717380Y-140963333D01*
X125741190Y-140915714D01*
X125741190Y-140820476D01*
X125717380Y-140772857D01*
X125693571Y-140749047D01*
X125645952Y-140725238D01*
X125241190Y-140725238D01*
X125241190Y-140534761D02*
X125241190Y-140201428D01*
X125741190Y-140415714D01*
G04 #@! TO.C,U8*
X79226047Y-162919190D02*
X79226047Y-163323952D01*
X79249857Y-163371571D01*
X79273666Y-163395380D01*
X79321285Y-163419190D01*
X79416523Y-163419190D01*
X79464142Y-163395380D01*
X79487952Y-163371571D01*
X79511761Y-163323952D01*
X79511761Y-162919190D01*
X79821285Y-163133476D02*
X79773666Y-163109666D01*
X79749857Y-163085857D01*
X79726047Y-163038238D01*
X79726047Y-163014428D01*
X79749857Y-162966809D01*
X79773666Y-162943000D01*
X79821285Y-162919190D01*
X79916523Y-162919190D01*
X79964142Y-162943000D01*
X79987952Y-162966809D01*
X80011761Y-163014428D01*
X80011761Y-163038238D01*
X79987952Y-163085857D01*
X79964142Y-163109666D01*
X79916523Y-163133476D01*
X79821285Y-163133476D01*
X79773666Y-163157285D01*
X79749857Y-163181095D01*
X79726047Y-163228714D01*
X79726047Y-163323952D01*
X79749857Y-163371571D01*
X79773666Y-163395380D01*
X79821285Y-163419190D01*
X79916523Y-163419190D01*
X79964142Y-163395380D01*
X79987952Y-163371571D01*
X80011761Y-163323952D01*
X80011761Y-163228714D01*
X79987952Y-163181095D01*
X79964142Y-163157285D01*
X79916523Y-163133476D01*
G04 #@! TO.C,U9*
X111493190Y-160652952D02*
X111897952Y-160652952D01*
X111945571Y-160629142D01*
X111969380Y-160605333D01*
X111993190Y-160557714D01*
X111993190Y-160462476D01*
X111969380Y-160414857D01*
X111945571Y-160391047D01*
X111897952Y-160367238D01*
X111493190Y-160367238D01*
X111993190Y-160105333D02*
X111993190Y-160010095D01*
X111969380Y-159962476D01*
X111945571Y-159938666D01*
X111874142Y-159891047D01*
X111778904Y-159867238D01*
X111588428Y-159867238D01*
X111540809Y-159891047D01*
X111517000Y-159914857D01*
X111493190Y-159962476D01*
X111493190Y-160057714D01*
X111517000Y-160105333D01*
X111540809Y-160129142D01*
X111588428Y-160152952D01*
X111707476Y-160152952D01*
X111755095Y-160129142D01*
X111778904Y-160105333D01*
X111802714Y-160057714D01*
X111802714Y-159962476D01*
X111778904Y-159914857D01*
X111755095Y-159891047D01*
X111707476Y-159867238D01*
G04 #@! TO.C,BH1*
D17*
X141493571Y-170058571D02*
X141541190Y-169915714D01*
X141588809Y-169868095D01*
X141684047Y-169820476D01*
X141826904Y-169820476D01*
X141922142Y-169868095D01*
X141969761Y-169915714D01*
X142017380Y-170010952D01*
X142017380Y-170391904D01*
X141017380Y-170391904D01*
X141017380Y-170058571D01*
X141065000Y-169963333D01*
X141112619Y-169915714D01*
X141207857Y-169868095D01*
X141303095Y-169868095D01*
X141398333Y-169915714D01*
X141445952Y-169963333D01*
X141493571Y-170058571D01*
X141493571Y-170391904D01*
X142017380Y-169391904D02*
X141017380Y-169391904D01*
X141493571Y-169391904D02*
X141493571Y-168820476D01*
X142017380Y-168820476D02*
X141017380Y-168820476D01*
X142017380Y-167820476D02*
X142017380Y-168391904D01*
X142017380Y-168106190D02*
X141017380Y-168106190D01*
X141160238Y-168201428D01*
X141255476Y-168296666D01*
X141303095Y-168391904D01*
X141511571Y-165883523D02*
X141559190Y-165740666D01*
X141606809Y-165693047D01*
X141702047Y-165645428D01*
X141844904Y-165645428D01*
X141940142Y-165693047D01*
X141987761Y-165740666D01*
X142035380Y-165835904D01*
X142035380Y-166216857D01*
X141035380Y-166216857D01*
X141035380Y-165883523D01*
X141083000Y-165788285D01*
X141130619Y-165740666D01*
X141225857Y-165693047D01*
X141321095Y-165693047D01*
X141416333Y-165740666D01*
X141463952Y-165788285D01*
X141511571Y-165883523D01*
X141511571Y-166216857D01*
X142035380Y-165216857D02*
X141035380Y-165216857D01*
X141511571Y-165216857D02*
X141511571Y-164645428D01*
X142035380Y-164645428D02*
X141035380Y-164645428D01*
X142035380Y-163645428D02*
X142035380Y-164216857D01*
X142035380Y-163931142D02*
X141035380Y-163931142D01*
X141178238Y-164026380D01*
X141273476Y-164121619D01*
X141321095Y-164216857D01*
X141130619Y-163264476D02*
X141083000Y-163216857D01*
X141035380Y-163121619D01*
X141035380Y-162883523D01*
X141083000Y-162788285D01*
X141130619Y-162740666D01*
X141225857Y-162693047D01*
X141321095Y-162693047D01*
X141463952Y-162740666D01*
X142035380Y-163312095D01*
X142035380Y-162693047D01*
X141035380Y-162359714D02*
X141035380Y-161740666D01*
X141416333Y-162074000D01*
X141416333Y-161931142D01*
X141463952Y-161835904D01*
X141511571Y-161788285D01*
X141606809Y-161740666D01*
X141844904Y-161740666D01*
X141940142Y-161788285D01*
X141987761Y-161835904D01*
X142035380Y-161931142D01*
X142035380Y-162216857D01*
X141987761Y-162312095D01*
X141940142Y-162359714D01*
X141749666Y-161359714D02*
X141749666Y-160883523D01*
X142035380Y-161454952D02*
X141035380Y-161121619D01*
X142035380Y-160788285D01*
D16*
X149179285Y-141472857D02*
X149179285Y-139187142D01*
X150322142Y-140330000D02*
X148036428Y-140330000D01*
X149179285Y-167472857D02*
X149179285Y-165187142D01*
G04 #@! TO.C,EN1*
D11*
X159600707Y-169531095D02*
X159600707Y-169197762D01*
X160124516Y-169054905D02*
X160124516Y-169531095D01*
X159124516Y-169531095D01*
X159124516Y-169054905D01*
X160124516Y-168626333D02*
X159124516Y-168626333D01*
X160124516Y-168054905D01*
X159124516Y-168054905D01*
X160124516Y-167054905D02*
X160124516Y-167626333D01*
X160124516Y-167340619D02*
X159124516Y-167340619D01*
X159267374Y-167435857D01*
X159362612Y-167531095D01*
X159410231Y-167626333D01*
G04 #@! TO.C,EN2*
X159600707Y-160641095D02*
X159600707Y-160307762D01*
X160124516Y-160164905D02*
X160124516Y-160641095D01*
X159124516Y-160641095D01*
X159124516Y-160164905D01*
X160124516Y-159736333D02*
X159124516Y-159736333D01*
X160124516Y-159164905D01*
X159124516Y-159164905D01*
X159219755Y-158736333D02*
X159172136Y-158688714D01*
X159124516Y-158593476D01*
X159124516Y-158355381D01*
X159172136Y-158260143D01*
X159219755Y-158212524D01*
X159314993Y-158164905D01*
X159410231Y-158164905D01*
X159553088Y-158212524D01*
X160124516Y-158783952D01*
X160124516Y-158164905D01*
G04 #@! TO.C,EN3*
X159600707Y-149501095D02*
X159600707Y-149167762D01*
X160124516Y-149024905D02*
X160124516Y-149501095D01*
X159124516Y-149501095D01*
X159124516Y-149024905D01*
X160124516Y-148596333D02*
X159124516Y-148596333D01*
X160124516Y-148024905D01*
X159124516Y-148024905D01*
X159124516Y-147643952D02*
X159124516Y-147024905D01*
X159505469Y-147358238D01*
X159505469Y-147215381D01*
X159553088Y-147120143D01*
X159600707Y-147072524D01*
X159695945Y-147024905D01*
X159934040Y-147024905D01*
X160029278Y-147072524D01*
X160076897Y-147120143D01*
X160124516Y-147215381D01*
X160124516Y-147501095D01*
X160076897Y-147596333D01*
X160029278Y-147643952D01*
G04 #@! TO.C,EN4*
X159600707Y-140726095D02*
X159600707Y-140392762D01*
X160124516Y-140249905D02*
X160124516Y-140726095D01*
X159124516Y-140726095D01*
X159124516Y-140249905D01*
X160124516Y-139821333D02*
X159124516Y-139821333D01*
X160124516Y-139249905D01*
X159124516Y-139249905D01*
X159457850Y-138345143D02*
X160124516Y-138345143D01*
X159076897Y-138583238D02*
X159791183Y-138821333D01*
X159791183Y-138202286D01*
G04 #@! TO.C,J8*
X116328380Y-178540333D02*
X117042666Y-178540333D01*
X117185523Y-178587952D01*
X117280761Y-178683190D01*
X117328380Y-178826047D01*
X117328380Y-178921285D01*
X116756952Y-177921285D02*
X116709333Y-178016523D01*
X116661714Y-178064142D01*
X116566476Y-178111761D01*
X116518857Y-178111761D01*
X116423619Y-178064142D01*
X116376000Y-178016523D01*
X116328380Y-177921285D01*
X116328380Y-177730809D01*
X116376000Y-177635571D01*
X116423619Y-177587952D01*
X116518857Y-177540333D01*
X116566476Y-177540333D01*
X116661714Y-177587952D01*
X116709333Y-177635571D01*
X116756952Y-177730809D01*
X116756952Y-177921285D01*
X116804571Y-178016523D01*
X116852190Y-178064142D01*
X116947428Y-178111761D01*
X117137904Y-178111761D01*
X117233142Y-178064142D01*
X117280761Y-178016523D01*
X117328380Y-177921285D01*
X117328380Y-177730809D01*
X117280761Y-177635571D01*
X117233142Y-177587952D01*
X117137904Y-177540333D01*
X116947428Y-177540333D01*
X116852190Y-177587952D01*
X116804571Y-177635571D01*
X116756952Y-177730809D01*
G04 #@! TO.C,D11*
D12*
X148548904Y-175478571D02*
X147748904Y-175478571D01*
X147748904Y-175335714D01*
X147787000Y-175250000D01*
X147863190Y-175192857D01*
X147939380Y-175164285D01*
X148091761Y-175135714D01*
X148206047Y-175135714D01*
X148358428Y-175164285D01*
X148434619Y-175192857D01*
X148510809Y-175250000D01*
X148548904Y-175335714D01*
X148548904Y-175478571D01*
X148548904Y-174564285D02*
X148548904Y-174907142D01*
X148548904Y-174735714D02*
X147748904Y-174735714D01*
X147863190Y-174792857D01*
X147939380Y-174850000D01*
X147977476Y-174907142D01*
X148548904Y-173992857D02*
X148548904Y-174335714D01*
X148548904Y-174164285D02*
X147748904Y-174164285D01*
X147863190Y-174221428D01*
X147939380Y-174278571D01*
X147977476Y-174335714D01*
G04 #@! TO.C,R1*
X79981666Y-153005190D02*
X79815000Y-152767095D01*
X79695952Y-153005190D02*
X79695952Y-152505190D01*
X79886428Y-152505190D01*
X79934047Y-152529000D01*
X79957857Y-152552809D01*
X79981666Y-152600428D01*
X79981666Y-152671857D01*
X79957857Y-152719476D01*
X79934047Y-152743285D01*
X79886428Y-152767095D01*
X79695952Y-152767095D01*
X80457857Y-153005190D02*
X80172142Y-153005190D01*
X80315000Y-153005190D02*
X80315000Y-152505190D01*
X80267380Y-152576619D01*
X80219761Y-152624238D01*
X80172142Y-152648047D01*
G04 #@! TO.C,R2*
X79981666Y-150465190D02*
X79815000Y-150227095D01*
X79695952Y-150465190D02*
X79695952Y-149965190D01*
X79886428Y-149965190D01*
X79934047Y-149989000D01*
X79957857Y-150012809D01*
X79981666Y-150060428D01*
X79981666Y-150131857D01*
X79957857Y-150179476D01*
X79934047Y-150203285D01*
X79886428Y-150227095D01*
X79695952Y-150227095D01*
X80172142Y-150012809D02*
X80195952Y-149989000D01*
X80243571Y-149965190D01*
X80362619Y-149965190D01*
X80410238Y-149989000D01*
X80434047Y-150012809D01*
X80457857Y-150060428D01*
X80457857Y-150108047D01*
X80434047Y-150179476D01*
X80148333Y-150465190D01*
X80457857Y-150465190D01*
G04 #@! TO.C,R3*
X135713190Y-158577333D02*
X135475095Y-158744000D01*
X135713190Y-158863047D02*
X135213190Y-158863047D01*
X135213190Y-158672571D01*
X135237000Y-158624952D01*
X135260809Y-158601142D01*
X135308428Y-158577333D01*
X135379857Y-158577333D01*
X135427476Y-158601142D01*
X135451285Y-158624952D01*
X135475095Y-158672571D01*
X135475095Y-158863047D01*
X135213190Y-158410666D02*
X135213190Y-158101142D01*
X135403666Y-158267809D01*
X135403666Y-158196380D01*
X135427476Y-158148761D01*
X135451285Y-158124952D01*
X135498904Y-158101142D01*
X135617952Y-158101142D01*
X135665571Y-158124952D01*
X135689380Y-158148761D01*
X135713190Y-158196380D01*
X135713190Y-158339238D01*
X135689380Y-158386857D01*
X135665571Y-158410666D01*
G04 #@! TO.C,R4*
X129617190Y-158577333D02*
X129379095Y-158744000D01*
X129617190Y-158863047D02*
X129117190Y-158863047D01*
X129117190Y-158672571D01*
X129141000Y-158624952D01*
X129164809Y-158601142D01*
X129212428Y-158577333D01*
X129283857Y-158577333D01*
X129331476Y-158601142D01*
X129355285Y-158624952D01*
X129379095Y-158672571D01*
X129379095Y-158863047D01*
X129283857Y-158148761D02*
X129617190Y-158148761D01*
X129093380Y-158267809D02*
X129450523Y-158386857D01*
X129450523Y-158077333D01*
G04 #@! TO.C,R5*
X82063666Y-162149190D02*
X81897000Y-161911095D01*
X81777952Y-162149190D02*
X81777952Y-161649190D01*
X81968428Y-161649190D01*
X82016047Y-161673000D01*
X82039857Y-161696809D01*
X82063666Y-161744428D01*
X82063666Y-161815857D01*
X82039857Y-161863476D01*
X82016047Y-161887285D01*
X81968428Y-161911095D01*
X81777952Y-161911095D01*
X82516047Y-161649190D02*
X82277952Y-161649190D01*
X82254142Y-161887285D01*
X82277952Y-161863476D01*
X82325571Y-161839666D01*
X82444619Y-161839666D01*
X82492238Y-161863476D01*
X82516047Y-161887285D01*
X82539857Y-161934904D01*
X82539857Y-162053952D01*
X82516047Y-162101571D01*
X82492238Y-162125380D01*
X82444619Y-162149190D01*
X82325571Y-162149190D01*
X82277952Y-162125380D01*
X82254142Y-162101571D01*
G04 #@! TO.C,R29*
X132665190Y-158815428D02*
X132427095Y-158982095D01*
X132665190Y-159101142D02*
X132165190Y-159101142D01*
X132165190Y-158910666D01*
X132189000Y-158863047D01*
X132212809Y-158839238D01*
X132260428Y-158815428D01*
X132331857Y-158815428D01*
X132379476Y-158839238D01*
X132403285Y-158863047D01*
X132427095Y-158910666D01*
X132427095Y-159101142D01*
X132212809Y-158624952D02*
X132189000Y-158601142D01*
X132165190Y-158553523D01*
X132165190Y-158434476D01*
X132189000Y-158386857D01*
X132212809Y-158363047D01*
X132260428Y-158339238D01*
X132308047Y-158339238D01*
X132379476Y-158363047D01*
X132665190Y-158648761D01*
X132665190Y-158339238D01*
X132665190Y-158101142D02*
X132665190Y-158005904D01*
X132641380Y-157958285D01*
X132617571Y-157934476D01*
X132546142Y-157886857D01*
X132450904Y-157863047D01*
X132260428Y-157863047D01*
X132212809Y-157886857D01*
X132189000Y-157910666D01*
X132165190Y-157958285D01*
X132165190Y-158053523D01*
X132189000Y-158101142D01*
X132212809Y-158124952D01*
X132260428Y-158148761D01*
X132379476Y-158148761D01*
X132427095Y-158124952D01*
X132450904Y-158101142D01*
X132474714Y-158053523D01*
X132474714Y-157958285D01*
X132450904Y-157910666D01*
X132427095Y-157886857D01*
X132379476Y-157863047D01*
G04 #@! TO.C,R30*
X107265190Y-141924428D02*
X107027095Y-142091095D01*
X107265190Y-142210142D02*
X106765190Y-142210142D01*
X106765190Y-142019666D01*
X106789000Y-141972047D01*
X106812809Y-141948238D01*
X106860428Y-141924428D01*
X106931857Y-141924428D01*
X106979476Y-141948238D01*
X107003285Y-141972047D01*
X107027095Y-142019666D01*
X107027095Y-142210142D01*
X106765190Y-141757761D02*
X106765190Y-141448238D01*
X106955666Y-141614904D01*
X106955666Y-141543476D01*
X106979476Y-141495857D01*
X107003285Y-141472047D01*
X107050904Y-141448238D01*
X107169952Y-141448238D01*
X107217571Y-141472047D01*
X107241380Y-141495857D01*
X107265190Y-141543476D01*
X107265190Y-141686333D01*
X107241380Y-141733952D01*
X107217571Y-141757761D01*
X106765190Y-141138714D02*
X106765190Y-141091095D01*
X106789000Y-141043476D01*
X106812809Y-141019666D01*
X106860428Y-140995857D01*
X106955666Y-140972047D01*
X107074714Y-140972047D01*
X107169952Y-140995857D01*
X107217571Y-141019666D01*
X107241380Y-141043476D01*
X107265190Y-141091095D01*
X107265190Y-141138714D01*
X107241380Y-141186333D01*
X107217571Y-141210142D01*
X107169952Y-141233952D01*
X107074714Y-141257761D01*
X106955666Y-141257761D01*
X106860428Y-141233952D01*
X106812809Y-141210142D01*
X106789000Y-141186333D01*
X106765190Y-141138714D01*
G04 #@! TO.C,R31*
X107265190Y-144579428D02*
X107027095Y-144746095D01*
X107265190Y-144865142D02*
X106765190Y-144865142D01*
X106765190Y-144674666D01*
X106789000Y-144627047D01*
X106812809Y-144603238D01*
X106860428Y-144579428D01*
X106931857Y-144579428D01*
X106979476Y-144603238D01*
X107003285Y-144627047D01*
X107027095Y-144674666D01*
X107027095Y-144865142D01*
X106765190Y-144412761D02*
X106765190Y-144103238D01*
X106955666Y-144269904D01*
X106955666Y-144198476D01*
X106979476Y-144150857D01*
X107003285Y-144127047D01*
X107050904Y-144103238D01*
X107169952Y-144103238D01*
X107217571Y-144127047D01*
X107241380Y-144150857D01*
X107265190Y-144198476D01*
X107265190Y-144341333D01*
X107241380Y-144388952D01*
X107217571Y-144412761D01*
X107265190Y-143627047D02*
X107265190Y-143912761D01*
X107265190Y-143769904D02*
X106765190Y-143769904D01*
X106836619Y-143817523D01*
X106884238Y-143865142D01*
X106908047Y-143912761D01*
G04 #@! TO.C,R32*
X113791190Y-153501428D02*
X113553095Y-153668095D01*
X113791190Y-153787142D02*
X113291190Y-153787142D01*
X113291190Y-153596666D01*
X113315000Y-153549047D01*
X113338809Y-153525238D01*
X113386428Y-153501428D01*
X113457857Y-153501428D01*
X113505476Y-153525238D01*
X113529285Y-153549047D01*
X113553095Y-153596666D01*
X113553095Y-153787142D01*
X113291190Y-153334761D02*
X113291190Y-153025238D01*
X113481666Y-153191904D01*
X113481666Y-153120476D01*
X113505476Y-153072857D01*
X113529285Y-153049047D01*
X113576904Y-153025238D01*
X113695952Y-153025238D01*
X113743571Y-153049047D01*
X113767380Y-153072857D01*
X113791190Y-153120476D01*
X113791190Y-153263333D01*
X113767380Y-153310952D01*
X113743571Y-153334761D01*
X113338809Y-152834761D02*
X113315000Y-152810952D01*
X113291190Y-152763333D01*
X113291190Y-152644285D01*
X113315000Y-152596666D01*
X113338809Y-152572857D01*
X113386428Y-152549047D01*
X113434047Y-152549047D01*
X113505476Y-152572857D01*
X113791190Y-152858571D01*
X113791190Y-152549047D01*
G04 #@! TO.C,R33*
X109591190Y-153501428D02*
X109353095Y-153668095D01*
X109591190Y-153787142D02*
X109091190Y-153787142D01*
X109091190Y-153596666D01*
X109115000Y-153549047D01*
X109138809Y-153525238D01*
X109186428Y-153501428D01*
X109257857Y-153501428D01*
X109305476Y-153525238D01*
X109329285Y-153549047D01*
X109353095Y-153596666D01*
X109353095Y-153787142D01*
X109091190Y-153334761D02*
X109091190Y-153025238D01*
X109281666Y-153191904D01*
X109281666Y-153120476D01*
X109305476Y-153072857D01*
X109329285Y-153049047D01*
X109376904Y-153025238D01*
X109495952Y-153025238D01*
X109543571Y-153049047D01*
X109567380Y-153072857D01*
X109591190Y-153120476D01*
X109591190Y-153263333D01*
X109567380Y-153310952D01*
X109543571Y-153334761D01*
X109091190Y-152858571D02*
X109091190Y-152549047D01*
X109281666Y-152715714D01*
X109281666Y-152644285D01*
X109305476Y-152596666D01*
X109329285Y-152572857D01*
X109376904Y-152549047D01*
X109495952Y-152549047D01*
X109543571Y-152572857D01*
X109567380Y-152596666D01*
X109591190Y-152644285D01*
X109591190Y-152787142D01*
X109567380Y-152834761D01*
X109543571Y-152858571D01*
G04 #@! TO.C,R34*
X134189190Y-158815428D02*
X133951095Y-158982095D01*
X134189190Y-159101142D02*
X133689190Y-159101142D01*
X133689190Y-158910666D01*
X133713000Y-158863047D01*
X133736809Y-158839238D01*
X133784428Y-158815428D01*
X133855857Y-158815428D01*
X133903476Y-158839238D01*
X133927285Y-158863047D01*
X133951095Y-158910666D01*
X133951095Y-159101142D01*
X133689190Y-158648761D02*
X133689190Y-158339238D01*
X133879666Y-158505904D01*
X133879666Y-158434476D01*
X133903476Y-158386857D01*
X133927285Y-158363047D01*
X133974904Y-158339238D01*
X134093952Y-158339238D01*
X134141571Y-158363047D01*
X134165380Y-158386857D01*
X134189190Y-158434476D01*
X134189190Y-158577333D01*
X134165380Y-158624952D01*
X134141571Y-158648761D01*
X133855857Y-157910666D02*
X134189190Y-157910666D01*
X133665380Y-158029714D02*
X134022523Y-158148761D01*
X134022523Y-157839238D01*
G04 #@! TO.C,R35*
X123039190Y-153987428D02*
X122801095Y-154154095D01*
X123039190Y-154273142D02*
X122539190Y-154273142D01*
X122539190Y-154082666D01*
X122563000Y-154035047D01*
X122586809Y-154011238D01*
X122634428Y-153987428D01*
X122705857Y-153987428D01*
X122753476Y-154011238D01*
X122777285Y-154035047D01*
X122801095Y-154082666D01*
X122801095Y-154273142D01*
X122539190Y-153820761D02*
X122539190Y-153511238D01*
X122729666Y-153677904D01*
X122729666Y-153606476D01*
X122753476Y-153558857D01*
X122777285Y-153535047D01*
X122824904Y-153511238D01*
X122943952Y-153511238D01*
X122991571Y-153535047D01*
X123015380Y-153558857D01*
X123039190Y-153606476D01*
X123039190Y-153749333D01*
X123015380Y-153796952D01*
X122991571Y-153820761D01*
X122539190Y-153058857D02*
X122539190Y-153296952D01*
X122777285Y-153320761D01*
X122753476Y-153296952D01*
X122729666Y-153249333D01*
X122729666Y-153130285D01*
X122753476Y-153082666D01*
X122777285Y-153058857D01*
X122824904Y-153035047D01*
X122943952Y-153035047D01*
X122991571Y-153058857D01*
X123015380Y-153082666D01*
X123039190Y-153130285D01*
X123039190Y-153249333D01*
X123015380Y-153296952D01*
X122991571Y-153320761D01*
G04 #@! TO.C,R36*
X124791190Y-153989428D02*
X124553095Y-154156095D01*
X124791190Y-154275142D02*
X124291190Y-154275142D01*
X124291190Y-154084666D01*
X124315000Y-154037047D01*
X124338809Y-154013238D01*
X124386428Y-153989428D01*
X124457857Y-153989428D01*
X124505476Y-154013238D01*
X124529285Y-154037047D01*
X124553095Y-154084666D01*
X124553095Y-154275142D01*
X124291190Y-153822761D02*
X124291190Y-153513238D01*
X124481666Y-153679904D01*
X124481666Y-153608476D01*
X124505476Y-153560857D01*
X124529285Y-153537047D01*
X124576904Y-153513238D01*
X124695952Y-153513238D01*
X124743571Y-153537047D01*
X124767380Y-153560857D01*
X124791190Y-153608476D01*
X124791190Y-153751333D01*
X124767380Y-153798952D01*
X124743571Y-153822761D01*
X124291190Y-153084666D02*
X124291190Y-153179904D01*
X124315000Y-153227523D01*
X124338809Y-153251333D01*
X124410238Y-153298952D01*
X124505476Y-153322761D01*
X124695952Y-153322761D01*
X124743571Y-153298952D01*
X124767380Y-153275142D01*
X124791190Y-153227523D01*
X124791190Y-153132285D01*
X124767380Y-153084666D01*
X124743571Y-153060857D01*
X124695952Y-153037047D01*
X124576904Y-153037047D01*
X124529285Y-153060857D01*
X124505476Y-153084666D01*
X124481666Y-153132285D01*
X124481666Y-153227523D01*
X124505476Y-153275142D01*
X124529285Y-153298952D01*
X124576904Y-153322761D01*
G04 #@! TO.C,R37*
D11*
X107798380Y-138193857D02*
X107322190Y-138527190D01*
X107798380Y-138765285D02*
X106798380Y-138765285D01*
X106798380Y-138384333D01*
X106846000Y-138289095D01*
X106893619Y-138241476D01*
X106988857Y-138193857D01*
X107131714Y-138193857D01*
X107226952Y-138241476D01*
X107274571Y-138289095D01*
X107322190Y-138384333D01*
X107322190Y-138765285D01*
X106798380Y-137860523D02*
X106798380Y-137241476D01*
X107179333Y-137574809D01*
X107179333Y-137431952D01*
X107226952Y-137336714D01*
X107274571Y-137289095D01*
X107369809Y-137241476D01*
X107607904Y-137241476D01*
X107703142Y-137289095D01*
X107750761Y-137336714D01*
X107798380Y-137431952D01*
X107798380Y-137717666D01*
X107750761Y-137812904D01*
X107703142Y-137860523D01*
X106798380Y-136908142D02*
X106798380Y-136241476D01*
X107798380Y-136670047D01*
G04 #@! TO.C,R38*
D12*
X127557571Y-135987190D02*
X127390904Y-135749095D01*
X127271857Y-135987190D02*
X127271857Y-135487190D01*
X127462333Y-135487190D01*
X127509952Y-135511000D01*
X127533761Y-135534809D01*
X127557571Y-135582428D01*
X127557571Y-135653857D01*
X127533761Y-135701476D01*
X127509952Y-135725285D01*
X127462333Y-135749095D01*
X127271857Y-135749095D01*
X127724238Y-135487190D02*
X128033761Y-135487190D01*
X127867095Y-135677666D01*
X127938523Y-135677666D01*
X127986142Y-135701476D01*
X128009952Y-135725285D01*
X128033761Y-135772904D01*
X128033761Y-135891952D01*
X128009952Y-135939571D01*
X127986142Y-135963380D01*
X127938523Y-135987190D01*
X127795666Y-135987190D01*
X127748047Y-135963380D01*
X127724238Y-135939571D01*
X128319476Y-135701476D02*
X128271857Y-135677666D01*
X128248047Y-135653857D01*
X128224238Y-135606238D01*
X128224238Y-135582428D01*
X128248047Y-135534809D01*
X128271857Y-135511000D01*
X128319476Y-135487190D01*
X128414714Y-135487190D01*
X128462333Y-135511000D01*
X128486142Y-135534809D01*
X128509952Y-135582428D01*
X128509952Y-135606238D01*
X128486142Y-135653857D01*
X128462333Y-135677666D01*
X128414714Y-135701476D01*
X128319476Y-135701476D01*
X128271857Y-135725285D01*
X128248047Y-135749095D01*
X128224238Y-135796714D01*
X128224238Y-135891952D01*
X128248047Y-135939571D01*
X128271857Y-135963380D01*
X128319476Y-135987190D01*
X128414714Y-135987190D01*
X128462333Y-135963380D01*
X128486142Y-135939571D01*
X128509952Y-135891952D01*
X128509952Y-135796714D01*
X128486142Y-135749095D01*
X128462333Y-135725285D01*
X128414714Y-135701476D01*
G04 #@! TO.C,R39*
X128527190Y-147905428D02*
X128289095Y-148072095D01*
X128527190Y-148191142D02*
X128027190Y-148191142D01*
X128027190Y-148000666D01*
X128051000Y-147953047D01*
X128074809Y-147929238D01*
X128122428Y-147905428D01*
X128193857Y-147905428D01*
X128241476Y-147929238D01*
X128265285Y-147953047D01*
X128289095Y-148000666D01*
X128289095Y-148191142D01*
X128027190Y-147738761D02*
X128027190Y-147429238D01*
X128217666Y-147595904D01*
X128217666Y-147524476D01*
X128241476Y-147476857D01*
X128265285Y-147453047D01*
X128312904Y-147429238D01*
X128431952Y-147429238D01*
X128479571Y-147453047D01*
X128503380Y-147476857D01*
X128527190Y-147524476D01*
X128527190Y-147667333D01*
X128503380Y-147714952D01*
X128479571Y-147738761D01*
X128527190Y-147191142D02*
X128527190Y-147095904D01*
X128503380Y-147048285D01*
X128479571Y-147024476D01*
X128408142Y-146976857D01*
X128312904Y-146953047D01*
X128122428Y-146953047D01*
X128074809Y-146976857D01*
X128051000Y-147000666D01*
X128027190Y-147048285D01*
X128027190Y-147143523D01*
X128051000Y-147191142D01*
X128074809Y-147214952D01*
X128122428Y-147238761D01*
X128241476Y-147238761D01*
X128289095Y-147214952D01*
X128312904Y-147191142D01*
X128336714Y-147143523D01*
X128336714Y-147048285D01*
X128312904Y-147000666D01*
X128289095Y-146976857D01*
X128241476Y-146953047D01*
G04 #@! TO.C,R40*
X124410190Y-141225928D02*
X124172095Y-141392595D01*
X124410190Y-141511642D02*
X123910190Y-141511642D01*
X123910190Y-141321166D01*
X123934000Y-141273547D01*
X123957809Y-141249738D01*
X124005428Y-141225928D01*
X124076857Y-141225928D01*
X124124476Y-141249738D01*
X124148285Y-141273547D01*
X124172095Y-141321166D01*
X124172095Y-141511642D01*
X124076857Y-140797357D02*
X124410190Y-140797357D01*
X123886380Y-140916404D02*
X124243523Y-141035452D01*
X124243523Y-140725928D01*
X123910190Y-140440214D02*
X123910190Y-140392595D01*
X123934000Y-140344976D01*
X123957809Y-140321166D01*
X124005428Y-140297357D01*
X124100666Y-140273547D01*
X124219714Y-140273547D01*
X124314952Y-140297357D01*
X124362571Y-140321166D01*
X124386380Y-140344976D01*
X124410190Y-140392595D01*
X124410190Y-140440214D01*
X124386380Y-140487833D01*
X124362571Y-140511642D01*
X124314952Y-140535452D01*
X124219714Y-140559261D01*
X124100666Y-140559261D01*
X124005428Y-140535452D01*
X123957809Y-140511642D01*
X123934000Y-140487833D01*
X123910190Y-140440214D01*
G04 #@! TO.C,R41*
X128527190Y-145111428D02*
X128289095Y-145278095D01*
X128527190Y-145397142D02*
X128027190Y-145397142D01*
X128027190Y-145206666D01*
X128051000Y-145159047D01*
X128074809Y-145135238D01*
X128122428Y-145111428D01*
X128193857Y-145111428D01*
X128241476Y-145135238D01*
X128265285Y-145159047D01*
X128289095Y-145206666D01*
X128289095Y-145397142D01*
X128193857Y-144682857D02*
X128527190Y-144682857D01*
X128003380Y-144801904D02*
X128360523Y-144920952D01*
X128360523Y-144611428D01*
X128527190Y-144159047D02*
X128527190Y-144444761D01*
X128527190Y-144301904D02*
X128027190Y-144301904D01*
X128098619Y-144349523D01*
X128146238Y-144397142D01*
X128170047Y-144444761D01*
G04 #@! TO.C,R42*
X128093190Y-158815428D02*
X127855095Y-158982095D01*
X128093190Y-159101142D02*
X127593190Y-159101142D01*
X127593190Y-158910666D01*
X127617000Y-158863047D01*
X127640809Y-158839238D01*
X127688428Y-158815428D01*
X127759857Y-158815428D01*
X127807476Y-158839238D01*
X127831285Y-158863047D01*
X127855095Y-158910666D01*
X127855095Y-159101142D01*
X127759857Y-158386857D02*
X128093190Y-158386857D01*
X127569380Y-158505904D02*
X127926523Y-158624952D01*
X127926523Y-158315428D01*
X127640809Y-158148761D02*
X127617000Y-158124952D01*
X127593190Y-158077333D01*
X127593190Y-157958285D01*
X127617000Y-157910666D01*
X127640809Y-157886857D01*
X127688428Y-157863047D01*
X127736047Y-157863047D01*
X127807476Y-157886857D01*
X128093190Y-158172571D01*
X128093190Y-157863047D01*
G04 #@! TO.C,R43*
X126569190Y-158815428D02*
X126331095Y-158982095D01*
X126569190Y-159101142D02*
X126069190Y-159101142D01*
X126069190Y-158910666D01*
X126093000Y-158863047D01*
X126116809Y-158839238D01*
X126164428Y-158815428D01*
X126235857Y-158815428D01*
X126283476Y-158839238D01*
X126307285Y-158863047D01*
X126331095Y-158910666D01*
X126331095Y-159101142D01*
X126235857Y-158386857D02*
X126569190Y-158386857D01*
X126045380Y-158505904D02*
X126402523Y-158624952D01*
X126402523Y-158315428D01*
X126069190Y-158172571D02*
X126069190Y-157863047D01*
X126259666Y-158029714D01*
X126259666Y-157958285D01*
X126283476Y-157910666D01*
X126307285Y-157886857D01*
X126354904Y-157863047D01*
X126473952Y-157863047D01*
X126521571Y-157886857D01*
X126545380Y-157910666D01*
X126569190Y-157958285D01*
X126569190Y-158101142D01*
X126545380Y-158148761D01*
X126521571Y-158172571D01*
G04 #@! TO.C,R44*
X132157190Y-142674428D02*
X131919095Y-142841095D01*
X132157190Y-142960142D02*
X131657190Y-142960142D01*
X131657190Y-142769666D01*
X131681000Y-142722047D01*
X131704809Y-142698238D01*
X131752428Y-142674428D01*
X131823857Y-142674428D01*
X131871476Y-142698238D01*
X131895285Y-142722047D01*
X131919095Y-142769666D01*
X131919095Y-142960142D01*
X131823857Y-142245857D02*
X132157190Y-142245857D01*
X131633380Y-142364904D02*
X131990523Y-142483952D01*
X131990523Y-142174428D01*
X131823857Y-141769666D02*
X132157190Y-141769666D01*
X131633380Y-141888714D02*
X131990523Y-142007761D01*
X131990523Y-141698238D01*
G04 #@! TO.C,R45*
X132157190Y-139765428D02*
X131919095Y-139932095D01*
X132157190Y-140051142D02*
X131657190Y-140051142D01*
X131657190Y-139860666D01*
X131681000Y-139813047D01*
X131704809Y-139789238D01*
X131752428Y-139765428D01*
X131823857Y-139765428D01*
X131871476Y-139789238D01*
X131895285Y-139813047D01*
X131919095Y-139860666D01*
X131919095Y-140051142D01*
X131823857Y-139336857D02*
X132157190Y-139336857D01*
X131633380Y-139455904D02*
X131990523Y-139574952D01*
X131990523Y-139265428D01*
X131657190Y-138836857D02*
X131657190Y-139074952D01*
X131895285Y-139098761D01*
X131871476Y-139074952D01*
X131847666Y-139027333D01*
X131847666Y-138908285D01*
X131871476Y-138860666D01*
X131895285Y-138836857D01*
X131942904Y-138813047D01*
X132061952Y-138813047D01*
X132109571Y-138836857D01*
X132133380Y-138860666D01*
X132157190Y-138908285D01*
X132157190Y-139027333D01*
X132133380Y-139074952D01*
X132109571Y-139098761D01*
G04 #@! TO.C,R46*
X125045190Y-158815428D02*
X124807095Y-158982095D01*
X125045190Y-159101142D02*
X124545190Y-159101142D01*
X124545190Y-158910666D01*
X124569000Y-158863047D01*
X124592809Y-158839238D01*
X124640428Y-158815428D01*
X124711857Y-158815428D01*
X124759476Y-158839238D01*
X124783285Y-158863047D01*
X124807095Y-158910666D01*
X124807095Y-159101142D01*
X124711857Y-158386857D02*
X125045190Y-158386857D01*
X124521380Y-158505904D02*
X124878523Y-158624952D01*
X124878523Y-158315428D01*
X124545190Y-157910666D02*
X124545190Y-158005904D01*
X124569000Y-158053523D01*
X124592809Y-158077333D01*
X124664238Y-158124952D01*
X124759476Y-158148761D01*
X124949952Y-158148761D01*
X124997571Y-158124952D01*
X125021380Y-158101142D01*
X125045190Y-158053523D01*
X125045190Y-157958285D01*
X125021380Y-157910666D01*
X124997571Y-157886857D01*
X124949952Y-157863047D01*
X124830904Y-157863047D01*
X124783285Y-157886857D01*
X124759476Y-157910666D01*
X124735666Y-157958285D01*
X124735666Y-158053523D01*
X124759476Y-158101142D01*
X124783285Y-158124952D01*
X124830904Y-158148761D01*
G04 #@! TO.C,R47*
X131141190Y-158815428D02*
X130903095Y-158982095D01*
X131141190Y-159101142D02*
X130641190Y-159101142D01*
X130641190Y-158910666D01*
X130665000Y-158863047D01*
X130688809Y-158839238D01*
X130736428Y-158815428D01*
X130807857Y-158815428D01*
X130855476Y-158839238D01*
X130879285Y-158863047D01*
X130903095Y-158910666D01*
X130903095Y-159101142D01*
X130807857Y-158386857D02*
X131141190Y-158386857D01*
X130617380Y-158505904D02*
X130974523Y-158624952D01*
X130974523Y-158315428D01*
X130641190Y-158172571D02*
X130641190Y-157839238D01*
X131141190Y-158053523D01*
G04 #@! TO.C,R48*
X131863571Y-134082190D02*
X131696904Y-133844095D01*
X131577857Y-134082190D02*
X131577857Y-133582190D01*
X131768333Y-133582190D01*
X131815952Y-133606000D01*
X131839761Y-133629809D01*
X131863571Y-133677428D01*
X131863571Y-133748857D01*
X131839761Y-133796476D01*
X131815952Y-133820285D01*
X131768333Y-133844095D01*
X131577857Y-133844095D01*
X132292142Y-133748857D02*
X132292142Y-134082190D01*
X132173095Y-133558380D02*
X132054047Y-133915523D01*
X132363571Y-133915523D01*
X132625476Y-133796476D02*
X132577857Y-133772666D01*
X132554047Y-133748857D01*
X132530238Y-133701238D01*
X132530238Y-133677428D01*
X132554047Y-133629809D01*
X132577857Y-133606000D01*
X132625476Y-133582190D01*
X132720714Y-133582190D01*
X132768333Y-133606000D01*
X132792142Y-133629809D01*
X132815952Y-133677428D01*
X132815952Y-133701238D01*
X132792142Y-133748857D01*
X132768333Y-133772666D01*
X132720714Y-133796476D01*
X132625476Y-133796476D01*
X132577857Y-133820285D01*
X132554047Y-133844095D01*
X132530238Y-133891714D01*
X132530238Y-133986952D01*
X132554047Y-134034571D01*
X132577857Y-134058380D01*
X132625476Y-134082190D01*
X132720714Y-134082190D01*
X132768333Y-134058380D01*
X132792142Y-134034571D01*
X132815952Y-133986952D01*
X132815952Y-133891714D01*
X132792142Y-133844095D01*
X132768333Y-133820285D01*
X132720714Y-133796476D01*
G04 #@! TO.C,C2*
X102903666Y-136955571D02*
X102879857Y-136979380D01*
X102808428Y-137003190D01*
X102760809Y-137003190D01*
X102689380Y-136979380D01*
X102641761Y-136931761D01*
X102617952Y-136884142D01*
X102594142Y-136788904D01*
X102594142Y-136717476D01*
X102617952Y-136622238D01*
X102641761Y-136574619D01*
X102689380Y-136527000D01*
X102760809Y-136503190D01*
X102808428Y-136503190D01*
X102879857Y-136527000D01*
X102903666Y-136550809D01*
X103094142Y-136550809D02*
X103117952Y-136527000D01*
X103165571Y-136503190D01*
X103284619Y-136503190D01*
X103332238Y-136527000D01*
X103356047Y-136550809D01*
X103379857Y-136598428D01*
X103379857Y-136646047D01*
X103356047Y-136717476D01*
X103070333Y-137003190D01*
X103379857Y-137003190D01*
G04 #@! TO.C,C3*
X114431666Y-152258571D02*
X114407857Y-152282380D01*
X114336428Y-152306190D01*
X114288809Y-152306190D01*
X114217380Y-152282380D01*
X114169761Y-152234761D01*
X114145952Y-152187142D01*
X114122142Y-152091904D01*
X114122142Y-152020476D01*
X114145952Y-151925238D01*
X114169761Y-151877619D01*
X114217380Y-151830000D01*
X114288809Y-151806190D01*
X114336428Y-151806190D01*
X114407857Y-151830000D01*
X114431666Y-151853809D01*
X114598333Y-151806190D02*
X114907857Y-151806190D01*
X114741190Y-151996666D01*
X114812619Y-151996666D01*
X114860238Y-152020476D01*
X114884047Y-152044285D01*
X114907857Y-152091904D01*
X114907857Y-152210952D01*
X114884047Y-152258571D01*
X114860238Y-152282380D01*
X114812619Y-152306190D01*
X114669761Y-152306190D01*
X114622142Y-152282380D01*
X114598333Y-152258571D01*
G04 #@! TO.C,C4*
X102891666Y-138479571D02*
X102867857Y-138503380D01*
X102796428Y-138527190D01*
X102748809Y-138527190D01*
X102677380Y-138503380D01*
X102629761Y-138455761D01*
X102605952Y-138408142D01*
X102582142Y-138312904D01*
X102582142Y-138241476D01*
X102605952Y-138146238D01*
X102629761Y-138098619D01*
X102677380Y-138051000D01*
X102748809Y-138027190D01*
X102796428Y-138027190D01*
X102867857Y-138051000D01*
X102891666Y-138074809D01*
X103320238Y-138193857D02*
X103320238Y-138527190D01*
X103201190Y-138003380D02*
X103082142Y-138360523D01*
X103391666Y-138360523D01*
G04 #@! TO.C,C5*
X121431666Y-153258571D02*
X121407857Y-153282380D01*
X121336428Y-153306190D01*
X121288809Y-153306190D01*
X121217380Y-153282380D01*
X121169761Y-153234761D01*
X121145952Y-153187142D01*
X121122142Y-153091904D01*
X121122142Y-153020476D01*
X121145952Y-152925238D01*
X121169761Y-152877619D01*
X121217380Y-152830000D01*
X121288809Y-152806190D01*
X121336428Y-152806190D01*
X121407857Y-152830000D01*
X121431666Y-152853809D01*
X121884047Y-152806190D02*
X121645952Y-152806190D01*
X121622142Y-153044285D01*
X121645952Y-153020476D01*
X121693571Y-152996666D01*
X121812619Y-152996666D01*
X121860238Y-153020476D01*
X121884047Y-153044285D01*
X121907857Y-153091904D01*
X121907857Y-153210952D01*
X121884047Y-153258571D01*
X121860238Y-153282380D01*
X121812619Y-153306190D01*
X121693571Y-153306190D01*
X121645952Y-153282380D01*
X121622142Y-153258571D01*
G04 #@! TO.C,C7*
X115243571Y-150913333D02*
X115267380Y-150937142D01*
X115291190Y-151008571D01*
X115291190Y-151056190D01*
X115267380Y-151127619D01*
X115219761Y-151175238D01*
X115172142Y-151199047D01*
X115076904Y-151222857D01*
X115005476Y-151222857D01*
X114910238Y-151199047D01*
X114862619Y-151175238D01*
X114815000Y-151127619D01*
X114791190Y-151056190D01*
X114791190Y-151008571D01*
X114815000Y-150937142D01*
X114838809Y-150913333D01*
X114791190Y-150746666D02*
X114791190Y-150413333D01*
X115291190Y-150627619D01*
G04 #@! TO.C,C8*
X110233666Y-157021571D02*
X110209857Y-157045380D01*
X110138428Y-157069190D01*
X110090809Y-157069190D01*
X110019380Y-157045380D01*
X109971761Y-156997761D01*
X109947952Y-156950142D01*
X109924142Y-156854904D01*
X109924142Y-156783476D01*
X109947952Y-156688238D01*
X109971761Y-156640619D01*
X110019380Y-156593000D01*
X110090809Y-156569190D01*
X110138428Y-156569190D01*
X110209857Y-156593000D01*
X110233666Y-156616809D01*
X110519380Y-156783476D02*
X110471761Y-156759666D01*
X110447952Y-156735857D01*
X110424142Y-156688238D01*
X110424142Y-156664428D01*
X110447952Y-156616809D01*
X110471761Y-156593000D01*
X110519380Y-156569190D01*
X110614619Y-156569190D01*
X110662238Y-156593000D01*
X110686047Y-156616809D01*
X110709857Y-156664428D01*
X110709857Y-156688238D01*
X110686047Y-156735857D01*
X110662238Y-156759666D01*
X110614619Y-156783476D01*
X110519380Y-156783476D01*
X110471761Y-156807285D01*
X110447952Y-156831095D01*
X110424142Y-156878714D01*
X110424142Y-156973952D01*
X110447952Y-157021571D01*
X110471761Y-157045380D01*
X110519380Y-157069190D01*
X110614619Y-157069190D01*
X110662238Y-157045380D01*
X110686047Y-157021571D01*
X110709857Y-156973952D01*
X110709857Y-156878714D01*
X110686047Y-156831095D01*
X110662238Y-156807285D01*
X110614619Y-156783476D01*
G04 #@! TO.C,C9*
X124989666Y-136447571D02*
X124965857Y-136471380D01*
X124894428Y-136495190D01*
X124846809Y-136495190D01*
X124775380Y-136471380D01*
X124727761Y-136423761D01*
X124703952Y-136376142D01*
X124680142Y-136280904D01*
X124680142Y-136209476D01*
X124703952Y-136114238D01*
X124727761Y-136066619D01*
X124775380Y-136019000D01*
X124846809Y-135995190D01*
X124894428Y-135995190D01*
X124965857Y-136019000D01*
X124989666Y-136042809D01*
X125227761Y-136495190D02*
X125323000Y-136495190D01*
X125370619Y-136471380D01*
X125394428Y-136447571D01*
X125442047Y-136376142D01*
X125465857Y-136280904D01*
X125465857Y-136090428D01*
X125442047Y-136042809D01*
X125418238Y-136019000D01*
X125370619Y-135995190D01*
X125275380Y-135995190D01*
X125227761Y-136019000D01*
X125203952Y-136042809D01*
X125180142Y-136090428D01*
X125180142Y-136209476D01*
X125203952Y-136257095D01*
X125227761Y-136280904D01*
X125275380Y-136304714D01*
X125370619Y-136304714D01*
X125418238Y-136280904D01*
X125442047Y-136257095D01*
X125465857Y-136209476D01*
G04 #@! TO.C,C12*
X117314451Y-143529091D02*
X117290641Y-143552900D01*
X117219213Y-143576710D01*
X117171594Y-143576710D01*
X117100165Y-143552900D01*
X117052546Y-143505281D01*
X117028737Y-143457662D01*
X117004927Y-143362424D01*
X117004927Y-143290996D01*
X117028737Y-143195758D01*
X117052546Y-143148139D01*
X117100165Y-143100520D01*
X117171594Y-143076710D01*
X117219213Y-143076710D01*
X117290641Y-143100520D01*
X117314451Y-143124329D01*
X117790641Y-143576710D02*
X117504927Y-143576710D01*
X117647784Y-143576710D02*
X117647784Y-143076710D01*
X117600165Y-143148139D01*
X117552546Y-143195758D01*
X117504927Y-143219567D01*
X117981118Y-143124329D02*
X118004927Y-143100520D01*
X118052546Y-143076710D01*
X118171594Y-143076710D01*
X118219213Y-143100520D01*
X118243022Y-143124329D01*
X118266832Y-143171948D01*
X118266832Y-143219567D01*
X118243022Y-143290996D01*
X117957308Y-143576710D01*
X118266832Y-143576710D01*
G04 #@! TO.C,C13*
X117332931Y-142022871D02*
X117309121Y-142046680D01*
X117237693Y-142070490D01*
X117190074Y-142070490D01*
X117118645Y-142046680D01*
X117071026Y-141999061D01*
X117047217Y-141951442D01*
X117023407Y-141856204D01*
X117023407Y-141784776D01*
X117047217Y-141689538D01*
X117071026Y-141641919D01*
X117118645Y-141594300D01*
X117190074Y-141570490D01*
X117237693Y-141570490D01*
X117309121Y-141594300D01*
X117332931Y-141618109D01*
X117809121Y-142070490D02*
X117523407Y-142070490D01*
X117666264Y-142070490D02*
X117666264Y-141570490D01*
X117618645Y-141641919D01*
X117571026Y-141689538D01*
X117523407Y-141713347D01*
X117975788Y-141570490D02*
X118285312Y-141570490D01*
X118118645Y-141760966D01*
X118190074Y-141760966D01*
X118237693Y-141784776D01*
X118261502Y-141808585D01*
X118285312Y-141856204D01*
X118285312Y-141975252D01*
X118261502Y-142022871D01*
X118237693Y-142046680D01*
X118190074Y-142070490D01*
X118047217Y-142070490D01*
X117999598Y-142046680D01*
X117975788Y-142022871D01*
G04 #@! TO.C,C14*
X117270131Y-140481091D02*
X117246321Y-140504900D01*
X117174893Y-140528710D01*
X117127274Y-140528710D01*
X117055845Y-140504900D01*
X117008226Y-140457281D01*
X116984417Y-140409662D01*
X116960607Y-140314424D01*
X116960607Y-140242996D01*
X116984417Y-140147758D01*
X117008226Y-140100139D01*
X117055845Y-140052520D01*
X117127274Y-140028710D01*
X117174893Y-140028710D01*
X117246321Y-140052520D01*
X117270131Y-140076329D01*
X117746321Y-140528710D02*
X117460607Y-140528710D01*
X117603464Y-140528710D02*
X117603464Y-140028710D01*
X117555845Y-140100139D01*
X117508226Y-140147758D01*
X117460607Y-140171567D01*
X118174893Y-140195377D02*
X118174893Y-140528710D01*
X118055845Y-140004900D02*
X117936798Y-140362043D01*
X118246321Y-140362043D01*
G04 #@! TO.C,C10*
X88311571Y-142305428D02*
X88335380Y-142329238D01*
X88359190Y-142400666D01*
X88359190Y-142448285D01*
X88335380Y-142519714D01*
X88287761Y-142567333D01*
X88240142Y-142591142D01*
X88144904Y-142614952D01*
X88073476Y-142614952D01*
X87978238Y-142591142D01*
X87930619Y-142567333D01*
X87883000Y-142519714D01*
X87859190Y-142448285D01*
X87859190Y-142400666D01*
X87883000Y-142329238D01*
X87906809Y-142305428D01*
X88359190Y-141829238D02*
X88359190Y-142114952D01*
X88359190Y-141972095D02*
X87859190Y-141972095D01*
X87930619Y-142019714D01*
X87978238Y-142067333D01*
X88002047Y-142114952D01*
X87859190Y-141519714D02*
X87859190Y-141472095D01*
X87883000Y-141424476D01*
X87906809Y-141400666D01*
X87954428Y-141376857D01*
X88049666Y-141353047D01*
X88168714Y-141353047D01*
X88263952Y-141376857D01*
X88311571Y-141400666D01*
X88335380Y-141424476D01*
X88359190Y-141472095D01*
X88359190Y-141519714D01*
X88335380Y-141567333D01*
X88311571Y-141591142D01*
X88263952Y-141614952D01*
X88168714Y-141638761D01*
X88049666Y-141638761D01*
X87954428Y-141614952D01*
X87906809Y-141591142D01*
X87883000Y-141567333D01*
X87859190Y-141519714D01*
D11*
X89784428Y-138984952D02*
X89784428Y-138223047D01*
X90165380Y-138604000D02*
X89403476Y-138604000D01*
G04 #@! TO.C,C11*
D12*
X103796571Y-148258571D02*
X103772761Y-148282380D01*
X103701333Y-148306190D01*
X103653714Y-148306190D01*
X103582285Y-148282380D01*
X103534666Y-148234761D01*
X103510857Y-148187142D01*
X103487047Y-148091904D01*
X103487047Y-148020476D01*
X103510857Y-147925238D01*
X103534666Y-147877619D01*
X103582285Y-147830000D01*
X103653714Y-147806190D01*
X103701333Y-147806190D01*
X103772761Y-147830000D01*
X103796571Y-147853809D01*
X104272761Y-148306190D02*
X103987047Y-148306190D01*
X104129904Y-148306190D02*
X104129904Y-147806190D01*
X104082285Y-147877619D01*
X104034666Y-147925238D01*
X103987047Y-147949047D01*
X104748952Y-148306190D02*
X104463238Y-148306190D01*
X104606095Y-148306190D02*
X104606095Y-147806190D01*
X104558476Y-147877619D01*
X104510857Y-147925238D01*
X104463238Y-147949047D01*
D11*
X108688428Y-154888952D02*
X108688428Y-154127047D01*
X109069380Y-154508000D02*
X108307476Y-154508000D01*
G04 #@! TO.C,C6*
D12*
X102891666Y-140003571D02*
X102867857Y-140027380D01*
X102796428Y-140051190D01*
X102748809Y-140051190D01*
X102677380Y-140027380D01*
X102629761Y-139979761D01*
X102605952Y-139932142D01*
X102582142Y-139836904D01*
X102582142Y-139765476D01*
X102605952Y-139670238D01*
X102629761Y-139622619D01*
X102677380Y-139575000D01*
X102748809Y-139551190D01*
X102796428Y-139551190D01*
X102867857Y-139575000D01*
X102891666Y-139598809D01*
X103320238Y-139551190D02*
X103225000Y-139551190D01*
X103177380Y-139575000D01*
X103153571Y-139598809D01*
X103105952Y-139670238D01*
X103082142Y-139765476D01*
X103082142Y-139955952D01*
X103105952Y-140003571D01*
X103129761Y-140027380D01*
X103177380Y-140051190D01*
X103272619Y-140051190D01*
X103320238Y-140027380D01*
X103344047Y-140003571D01*
X103367857Y-139955952D01*
X103367857Y-139836904D01*
X103344047Y-139789285D01*
X103320238Y-139765476D01*
X103272619Y-139741666D01*
X103177380Y-139741666D01*
X103129761Y-139765476D01*
X103105952Y-139789285D01*
X103082142Y-139836904D01*
G04 #@! TO.C,C15*
X112813571Y-156005571D02*
X112789761Y-156029380D01*
X112718333Y-156053190D01*
X112670714Y-156053190D01*
X112599285Y-156029380D01*
X112551666Y-155981761D01*
X112527857Y-155934142D01*
X112504047Y-155838904D01*
X112504047Y-155767476D01*
X112527857Y-155672238D01*
X112551666Y-155624619D01*
X112599285Y-155577000D01*
X112670714Y-155553190D01*
X112718333Y-155553190D01*
X112789761Y-155577000D01*
X112813571Y-155600809D01*
X113289761Y-156053190D02*
X113004047Y-156053190D01*
X113146904Y-156053190D02*
X113146904Y-155553190D01*
X113099285Y-155624619D01*
X113051666Y-155672238D01*
X113004047Y-155696047D01*
X113742142Y-155553190D02*
X113504047Y-155553190D01*
X113480238Y-155791285D01*
X113504047Y-155767476D01*
X113551666Y-155743666D01*
X113670714Y-155743666D01*
X113718333Y-155767476D01*
X113742142Y-155791285D01*
X113765952Y-155838904D01*
X113765952Y-155957952D01*
X113742142Y-156005571D01*
X113718333Y-156029380D01*
X113670714Y-156053190D01*
X113551666Y-156053190D01*
X113504047Y-156029380D01*
X113480238Y-156005571D01*
G04 #@! TO.C,C16*
X100875571Y-157021571D02*
X100851761Y-157045380D01*
X100780333Y-157069190D01*
X100732714Y-157069190D01*
X100661285Y-157045380D01*
X100613666Y-156997761D01*
X100589857Y-156950142D01*
X100566047Y-156854904D01*
X100566047Y-156783476D01*
X100589857Y-156688238D01*
X100613666Y-156640619D01*
X100661285Y-156593000D01*
X100732714Y-156569190D01*
X100780333Y-156569190D01*
X100851761Y-156593000D01*
X100875571Y-156616809D01*
X101351761Y-157069190D02*
X101066047Y-157069190D01*
X101208904Y-157069190D02*
X101208904Y-156569190D01*
X101161285Y-156640619D01*
X101113666Y-156688238D01*
X101066047Y-156712047D01*
X101780333Y-156569190D02*
X101685095Y-156569190D01*
X101637476Y-156593000D01*
X101613666Y-156616809D01*
X101566047Y-156688238D01*
X101542238Y-156783476D01*
X101542238Y-156973952D01*
X101566047Y-157021571D01*
X101589857Y-157045380D01*
X101637476Y-157069190D01*
X101732714Y-157069190D01*
X101780333Y-157045380D01*
X101804142Y-157021571D01*
X101827952Y-156973952D01*
X101827952Y-156854904D01*
X101804142Y-156807285D01*
X101780333Y-156783476D01*
X101732714Y-156759666D01*
X101637476Y-156759666D01*
X101589857Y-156783476D01*
X101566047Y-156807285D01*
X101542238Y-156854904D01*
G04 #@! TO.C,C17*
X119409571Y-157291428D02*
X119433380Y-157315238D01*
X119457190Y-157386666D01*
X119457190Y-157434285D01*
X119433380Y-157505714D01*
X119385761Y-157553333D01*
X119338142Y-157577142D01*
X119242904Y-157600952D01*
X119171476Y-157600952D01*
X119076238Y-157577142D01*
X119028619Y-157553333D01*
X118981000Y-157505714D01*
X118957190Y-157434285D01*
X118957190Y-157386666D01*
X118981000Y-157315238D01*
X119004809Y-157291428D01*
X119457190Y-156815238D02*
X119457190Y-157100952D01*
X119457190Y-156958095D02*
X118957190Y-156958095D01*
X119028619Y-157005714D01*
X119076238Y-157053333D01*
X119100047Y-157100952D01*
X118957190Y-156648571D02*
X118957190Y-156315238D01*
X119457190Y-156529523D01*
G04 #@! TO.C,C18*
X107344571Y-156846928D02*
X107368380Y-156870738D01*
X107392190Y-156942166D01*
X107392190Y-156989785D01*
X107368380Y-157061214D01*
X107320761Y-157108833D01*
X107273142Y-157132642D01*
X107177904Y-157156452D01*
X107106476Y-157156452D01*
X107011238Y-157132642D01*
X106963619Y-157108833D01*
X106916000Y-157061214D01*
X106892190Y-156989785D01*
X106892190Y-156942166D01*
X106916000Y-156870738D01*
X106939809Y-156846928D01*
X107392190Y-156370738D02*
X107392190Y-156656452D01*
X107392190Y-156513595D02*
X106892190Y-156513595D01*
X106963619Y-156561214D01*
X107011238Y-156608833D01*
X107035047Y-156656452D01*
X107106476Y-156085023D02*
X107082666Y-156132642D01*
X107058857Y-156156452D01*
X107011238Y-156180261D01*
X106987428Y-156180261D01*
X106939809Y-156156452D01*
X106916000Y-156132642D01*
X106892190Y-156085023D01*
X106892190Y-155989785D01*
X106916000Y-155942166D01*
X106939809Y-155918357D01*
X106987428Y-155894547D01*
X107011238Y-155894547D01*
X107058857Y-155918357D01*
X107082666Y-155942166D01*
X107106476Y-155989785D01*
X107106476Y-156085023D01*
X107130285Y-156132642D01*
X107154095Y-156156452D01*
X107201714Y-156180261D01*
X107296952Y-156180261D01*
X107344571Y-156156452D01*
X107368380Y-156132642D01*
X107392190Y-156085023D01*
X107392190Y-155989785D01*
X107368380Y-155942166D01*
X107344571Y-155918357D01*
X107296952Y-155894547D01*
X107201714Y-155894547D01*
X107154095Y-155918357D01*
X107130285Y-155942166D01*
X107106476Y-155989785D01*
G04 #@! TO.C,C19*
X119409571Y-155767428D02*
X119433380Y-155791238D01*
X119457190Y-155862666D01*
X119457190Y-155910285D01*
X119433380Y-155981714D01*
X119385761Y-156029333D01*
X119338142Y-156053142D01*
X119242904Y-156076952D01*
X119171476Y-156076952D01*
X119076238Y-156053142D01*
X119028619Y-156029333D01*
X118981000Y-155981714D01*
X118957190Y-155910285D01*
X118957190Y-155862666D01*
X118981000Y-155791238D01*
X119004809Y-155767428D01*
X119457190Y-155291238D02*
X119457190Y-155576952D01*
X119457190Y-155434095D02*
X118957190Y-155434095D01*
X119028619Y-155481714D01*
X119076238Y-155529333D01*
X119100047Y-155576952D01*
X119457190Y-155053142D02*
X119457190Y-154957904D01*
X119433380Y-154910285D01*
X119409571Y-154886476D01*
X119338142Y-154838857D01*
X119242904Y-154815047D01*
X119052428Y-154815047D01*
X119004809Y-154838857D01*
X118981000Y-154862666D01*
X118957190Y-154910285D01*
X118957190Y-155005523D01*
X118981000Y-155053142D01*
X119004809Y-155076952D01*
X119052428Y-155100761D01*
X119171476Y-155100761D01*
X119219095Y-155076952D01*
X119242904Y-155053142D01*
X119266714Y-155005523D01*
X119266714Y-154910285D01*
X119242904Y-154862666D01*
X119219095Y-154838857D01*
X119171476Y-154815047D01*
G04 #@! TO.C,C20*
X107344571Y-158243928D02*
X107368380Y-158267738D01*
X107392190Y-158339166D01*
X107392190Y-158386785D01*
X107368380Y-158458214D01*
X107320761Y-158505833D01*
X107273142Y-158529642D01*
X107177904Y-158553452D01*
X107106476Y-158553452D01*
X107011238Y-158529642D01*
X106963619Y-158505833D01*
X106916000Y-158458214D01*
X106892190Y-158386785D01*
X106892190Y-158339166D01*
X106916000Y-158267738D01*
X106939809Y-158243928D01*
X106939809Y-158053452D02*
X106916000Y-158029642D01*
X106892190Y-157982023D01*
X106892190Y-157862976D01*
X106916000Y-157815357D01*
X106939809Y-157791547D01*
X106987428Y-157767738D01*
X107035047Y-157767738D01*
X107106476Y-157791547D01*
X107392190Y-158077261D01*
X107392190Y-157767738D01*
X106892190Y-157458214D02*
X106892190Y-157410595D01*
X106916000Y-157362976D01*
X106939809Y-157339166D01*
X106987428Y-157315357D01*
X107082666Y-157291547D01*
X107201714Y-157291547D01*
X107296952Y-157315357D01*
X107344571Y-157339166D01*
X107368380Y-157362976D01*
X107392190Y-157410595D01*
X107392190Y-157458214D01*
X107368380Y-157505833D01*
X107344571Y-157529642D01*
X107296952Y-157553452D01*
X107201714Y-157577261D01*
X107082666Y-157577261D01*
X106987428Y-157553452D01*
X106939809Y-157529642D01*
X106916000Y-157505833D01*
X106892190Y-157458214D01*
G04 #@! TO.C,C21*
X159308271Y-144423171D02*
X159284461Y-144446980D01*
X159213033Y-144470790D01*
X159165414Y-144470790D01*
X159093985Y-144446980D01*
X159046366Y-144399361D01*
X159022557Y-144351742D01*
X158998747Y-144256504D01*
X158998747Y-144185076D01*
X159022557Y-144089838D01*
X159046366Y-144042219D01*
X159093985Y-143994600D01*
X159165414Y-143970790D01*
X159213033Y-143970790D01*
X159284461Y-143994600D01*
X159308271Y-144018409D01*
X159498747Y-144018409D02*
X159522557Y-143994600D01*
X159570176Y-143970790D01*
X159689223Y-143970790D01*
X159736842Y-143994600D01*
X159760652Y-144018409D01*
X159784461Y-144066028D01*
X159784461Y-144113647D01*
X159760652Y-144185076D01*
X159474938Y-144470790D01*
X159784461Y-144470790D01*
X160260652Y-144470790D02*
X159974938Y-144470790D01*
X160117795Y-144470790D02*
X160117795Y-143970790D01*
X160070176Y-144042219D01*
X160022557Y-144089838D01*
X159974938Y-144113647D01*
G04 #@! TO.C,C22*
X120233671Y-177561328D02*
X120257480Y-177585138D01*
X120281290Y-177656566D01*
X120281290Y-177704185D01*
X120257480Y-177775614D01*
X120209861Y-177823233D01*
X120162242Y-177847042D01*
X120067004Y-177870852D01*
X119995576Y-177870852D01*
X119900338Y-177847042D01*
X119852719Y-177823233D01*
X119805100Y-177775614D01*
X119781290Y-177704185D01*
X119781290Y-177656566D01*
X119805100Y-177585138D01*
X119828909Y-177561328D01*
X119828909Y-177370852D02*
X119805100Y-177347042D01*
X119781290Y-177299423D01*
X119781290Y-177180376D01*
X119805100Y-177132757D01*
X119828909Y-177108947D01*
X119876528Y-177085138D01*
X119924147Y-177085138D01*
X119995576Y-177108947D01*
X120281290Y-177394661D01*
X120281290Y-177085138D01*
X119828909Y-176894661D02*
X119805100Y-176870852D01*
X119781290Y-176823233D01*
X119781290Y-176704185D01*
X119805100Y-176656566D01*
X119828909Y-176632757D01*
X119876528Y-176608947D01*
X119924147Y-176608947D01*
X119995576Y-176632757D01*
X120281290Y-176918471D01*
X120281290Y-176608947D01*
G04 #@! TO.C,C23*
X159371771Y-164438371D02*
X159347961Y-164462180D01*
X159276533Y-164485990D01*
X159228914Y-164485990D01*
X159157485Y-164462180D01*
X159109866Y-164414561D01*
X159086057Y-164366942D01*
X159062247Y-164271704D01*
X159062247Y-164200276D01*
X159086057Y-164105038D01*
X159109866Y-164057419D01*
X159157485Y-164009800D01*
X159228914Y-163985990D01*
X159276533Y-163985990D01*
X159347961Y-164009800D01*
X159371771Y-164033609D01*
X159562247Y-164033609D02*
X159586057Y-164009800D01*
X159633676Y-163985990D01*
X159752723Y-163985990D01*
X159800342Y-164009800D01*
X159824152Y-164033609D01*
X159847961Y-164081228D01*
X159847961Y-164128847D01*
X159824152Y-164200276D01*
X159538438Y-164485990D01*
X159847961Y-164485990D01*
X160014628Y-163985990D02*
X160324152Y-163985990D01*
X160157485Y-164176466D01*
X160228914Y-164176466D01*
X160276533Y-164200276D01*
X160300342Y-164224085D01*
X160324152Y-164271704D01*
X160324152Y-164390752D01*
X160300342Y-164438371D01*
X160276533Y-164462180D01*
X160228914Y-164485990D01*
X160086057Y-164485990D01*
X160038438Y-164462180D01*
X160014628Y-164438371D01*
G04 #@! TO.C,R8*
X110313190Y-162248333D02*
X110075095Y-162415000D01*
X110313190Y-162534047D02*
X109813190Y-162534047D01*
X109813190Y-162343571D01*
X109837000Y-162295952D01*
X109860809Y-162272142D01*
X109908428Y-162248333D01*
X109979857Y-162248333D01*
X110027476Y-162272142D01*
X110051285Y-162295952D01*
X110075095Y-162343571D01*
X110075095Y-162534047D01*
X110027476Y-161962619D02*
X110003666Y-162010238D01*
X109979857Y-162034047D01*
X109932238Y-162057857D01*
X109908428Y-162057857D01*
X109860809Y-162034047D01*
X109837000Y-162010238D01*
X109813190Y-161962619D01*
X109813190Y-161867380D01*
X109837000Y-161819761D01*
X109860809Y-161795952D01*
X109908428Y-161772142D01*
X109932238Y-161772142D01*
X109979857Y-161795952D01*
X110003666Y-161819761D01*
X110027476Y-161867380D01*
X110027476Y-161962619D01*
X110051285Y-162010238D01*
X110075095Y-162034047D01*
X110122714Y-162057857D01*
X110217952Y-162057857D01*
X110265571Y-162034047D01*
X110289380Y-162010238D01*
X110313190Y-161962619D01*
X110313190Y-161867380D01*
X110289380Y-161819761D01*
X110265571Y-161795952D01*
X110217952Y-161772142D01*
X110122714Y-161772142D01*
X110075095Y-161795952D01*
X110051285Y-161819761D01*
X110027476Y-161867380D01*
G04 #@! TO.C,C1*
X79443571Y-143579333D02*
X79467380Y-143603142D01*
X79491190Y-143674571D01*
X79491190Y-143722190D01*
X79467380Y-143793619D01*
X79419761Y-143841238D01*
X79372142Y-143865047D01*
X79276904Y-143888857D01*
X79205476Y-143888857D01*
X79110238Y-143865047D01*
X79062619Y-143841238D01*
X79015000Y-143793619D01*
X78991190Y-143722190D01*
X78991190Y-143674571D01*
X79015000Y-143603142D01*
X79038809Y-143579333D01*
X79491190Y-143103142D02*
X79491190Y-143388857D01*
X79491190Y-143246000D02*
X78991190Y-143246000D01*
X79062619Y-143293619D01*
X79110238Y-143341238D01*
X79134047Y-143388857D01*
G04 #@! TO.C,C24*
X92093571Y-148901428D02*
X92117380Y-148925238D01*
X92141190Y-148996666D01*
X92141190Y-149044285D01*
X92117380Y-149115714D01*
X92069761Y-149163333D01*
X92022142Y-149187142D01*
X91926904Y-149210952D01*
X91855476Y-149210952D01*
X91760238Y-149187142D01*
X91712619Y-149163333D01*
X91665000Y-149115714D01*
X91641190Y-149044285D01*
X91641190Y-148996666D01*
X91665000Y-148925238D01*
X91688809Y-148901428D01*
X91688809Y-148710952D02*
X91665000Y-148687142D01*
X91641190Y-148639523D01*
X91641190Y-148520476D01*
X91665000Y-148472857D01*
X91688809Y-148449047D01*
X91736428Y-148425238D01*
X91784047Y-148425238D01*
X91855476Y-148449047D01*
X92141190Y-148734761D01*
X92141190Y-148425238D01*
X91807857Y-147996666D02*
X92141190Y-147996666D01*
X91617380Y-148115714D02*
X91974523Y-148234761D01*
X91974523Y-147925238D01*
G04 #@! TO.C,C25*
X102443571Y-172551428D02*
X102467380Y-172575238D01*
X102491190Y-172646666D01*
X102491190Y-172694285D01*
X102467380Y-172765714D01*
X102419761Y-172813333D01*
X102372142Y-172837142D01*
X102276904Y-172860952D01*
X102205476Y-172860952D01*
X102110238Y-172837142D01*
X102062619Y-172813333D01*
X102015000Y-172765714D01*
X101991190Y-172694285D01*
X101991190Y-172646666D01*
X102015000Y-172575238D01*
X102038809Y-172551428D01*
X102038809Y-172360952D02*
X102015000Y-172337142D01*
X101991190Y-172289523D01*
X101991190Y-172170476D01*
X102015000Y-172122857D01*
X102038809Y-172099047D01*
X102086428Y-172075238D01*
X102134047Y-172075238D01*
X102205476Y-172099047D01*
X102491190Y-172384761D01*
X102491190Y-172075238D01*
X101991190Y-171622857D02*
X101991190Y-171860952D01*
X102229285Y-171884761D01*
X102205476Y-171860952D01*
X102181666Y-171813333D01*
X102181666Y-171694285D01*
X102205476Y-171646666D01*
X102229285Y-171622857D01*
X102276904Y-171599047D01*
X102395952Y-171599047D01*
X102443571Y-171622857D01*
X102467380Y-171646666D01*
X102491190Y-171694285D01*
X102491190Y-171813333D01*
X102467380Y-171860952D01*
X102443571Y-171884761D01*
G04 #@! TO.C,C26*
X93543571Y-148901428D02*
X93567380Y-148925238D01*
X93591190Y-148996666D01*
X93591190Y-149044285D01*
X93567380Y-149115714D01*
X93519761Y-149163333D01*
X93472142Y-149187142D01*
X93376904Y-149210952D01*
X93305476Y-149210952D01*
X93210238Y-149187142D01*
X93162619Y-149163333D01*
X93115000Y-149115714D01*
X93091190Y-149044285D01*
X93091190Y-148996666D01*
X93115000Y-148925238D01*
X93138809Y-148901428D01*
X93138809Y-148710952D02*
X93115000Y-148687142D01*
X93091190Y-148639523D01*
X93091190Y-148520476D01*
X93115000Y-148472857D01*
X93138809Y-148449047D01*
X93186428Y-148425238D01*
X93234047Y-148425238D01*
X93305476Y-148449047D01*
X93591190Y-148734761D01*
X93591190Y-148425238D01*
X93091190Y-147996666D02*
X93091190Y-148091904D01*
X93115000Y-148139523D01*
X93138809Y-148163333D01*
X93210238Y-148210952D01*
X93305476Y-148234761D01*
X93495952Y-148234761D01*
X93543571Y-148210952D01*
X93567380Y-148187142D01*
X93591190Y-148139523D01*
X93591190Y-148044285D01*
X93567380Y-147996666D01*
X93543571Y-147972857D01*
X93495952Y-147949047D01*
X93376904Y-147949047D01*
X93329285Y-147972857D01*
X93305476Y-147996666D01*
X93281666Y-148044285D01*
X93281666Y-148139523D01*
X93305476Y-148187142D01*
X93329285Y-148210952D01*
X93376904Y-148234761D01*
G04 #@! TO.C,C27*
X81563571Y-157775428D02*
X81587380Y-157799238D01*
X81611190Y-157870666D01*
X81611190Y-157918285D01*
X81587380Y-157989714D01*
X81539761Y-158037333D01*
X81492142Y-158061142D01*
X81396904Y-158084952D01*
X81325476Y-158084952D01*
X81230238Y-158061142D01*
X81182619Y-158037333D01*
X81135000Y-157989714D01*
X81111190Y-157918285D01*
X81111190Y-157870666D01*
X81135000Y-157799238D01*
X81158809Y-157775428D01*
X81158809Y-157584952D02*
X81135000Y-157561142D01*
X81111190Y-157513523D01*
X81111190Y-157394476D01*
X81135000Y-157346857D01*
X81158809Y-157323047D01*
X81206428Y-157299238D01*
X81254047Y-157299238D01*
X81325476Y-157323047D01*
X81611190Y-157608761D01*
X81611190Y-157299238D01*
X81111190Y-157132571D02*
X81111190Y-156799238D01*
X81611190Y-157013523D01*
G04 #@! TO.C,C28*
X82064572Y-169086427D02*
X82088381Y-169110237D01*
X82112191Y-169181665D01*
X82112191Y-169229284D01*
X82088381Y-169300713D01*
X82040762Y-169348332D01*
X81993143Y-169372141D01*
X81897905Y-169395951D01*
X81826477Y-169395951D01*
X81731239Y-169372141D01*
X81683620Y-169348332D01*
X81636001Y-169300713D01*
X81612191Y-169229284D01*
X81612191Y-169181665D01*
X81636001Y-169110237D01*
X81659810Y-169086427D01*
X81659810Y-168895951D02*
X81636001Y-168872141D01*
X81612191Y-168824522D01*
X81612191Y-168705475D01*
X81636001Y-168657856D01*
X81659810Y-168634046D01*
X81707429Y-168610237D01*
X81755048Y-168610237D01*
X81826477Y-168634046D01*
X82112191Y-168919760D01*
X82112191Y-168610237D01*
X81826477Y-168324522D02*
X81802667Y-168372141D01*
X81778858Y-168395951D01*
X81731239Y-168419760D01*
X81707429Y-168419760D01*
X81659810Y-168395951D01*
X81636001Y-168372141D01*
X81612191Y-168324522D01*
X81612191Y-168229284D01*
X81636001Y-168181665D01*
X81659810Y-168157856D01*
X81707429Y-168134046D01*
X81731239Y-168134046D01*
X81778858Y-168157856D01*
X81802667Y-168181665D01*
X81826477Y-168229284D01*
X81826477Y-168324522D01*
X81850286Y-168372141D01*
X81874096Y-168395951D01*
X81921715Y-168419760D01*
X82016953Y-168419760D01*
X82064572Y-168395951D01*
X82088381Y-168372141D01*
X82112191Y-168324522D01*
X82112191Y-168229284D01*
X82088381Y-168181665D01*
X82064572Y-168157856D01*
X82016953Y-168134046D01*
X81921715Y-168134046D01*
X81874096Y-168157856D01*
X81850286Y-168181665D01*
X81826477Y-168229284D01*
G04 #@! TO.C,C29*
X80293571Y-169229428D02*
X80317380Y-169253238D01*
X80341190Y-169324666D01*
X80341190Y-169372285D01*
X80317380Y-169443714D01*
X80269761Y-169491333D01*
X80222142Y-169515142D01*
X80126904Y-169538952D01*
X80055476Y-169538952D01*
X79960238Y-169515142D01*
X79912619Y-169491333D01*
X79865000Y-169443714D01*
X79841190Y-169372285D01*
X79841190Y-169324666D01*
X79865000Y-169253238D01*
X79888809Y-169229428D01*
X79888809Y-169038952D02*
X79865000Y-169015142D01*
X79841190Y-168967523D01*
X79841190Y-168848476D01*
X79865000Y-168800857D01*
X79888809Y-168777047D01*
X79936428Y-168753238D01*
X79984047Y-168753238D01*
X80055476Y-168777047D01*
X80341190Y-169062761D01*
X80341190Y-168753238D01*
X80341190Y-168515142D02*
X80341190Y-168419904D01*
X80317380Y-168372285D01*
X80293571Y-168348476D01*
X80222142Y-168300857D01*
X80126904Y-168277047D01*
X79936428Y-168277047D01*
X79888809Y-168300857D01*
X79865000Y-168324666D01*
X79841190Y-168372285D01*
X79841190Y-168467523D01*
X79865000Y-168515142D01*
X79888809Y-168538952D01*
X79936428Y-168562761D01*
X80055476Y-168562761D01*
X80103095Y-168538952D01*
X80126904Y-168515142D01*
X80150714Y-168467523D01*
X80150714Y-168372285D01*
X80126904Y-168324666D01*
X80103095Y-168300857D01*
X80055476Y-168277047D01*
G04 #@! TO.C,U1*
X71791190Y-141710952D02*
X72195952Y-141710952D01*
X72243571Y-141687142D01*
X72267380Y-141663333D01*
X72291190Y-141615714D01*
X72291190Y-141520476D01*
X72267380Y-141472857D01*
X72243571Y-141449047D01*
X72195952Y-141425238D01*
X71791190Y-141425238D01*
X72291190Y-140925238D02*
X72291190Y-141210952D01*
X72291190Y-141068095D02*
X71791190Y-141068095D01*
X71862619Y-141115714D01*
X71910238Y-141163333D01*
X71934047Y-141210952D01*
D11*
X71267380Y-171853809D02*
X71267380Y-172330000D01*
X70267380Y-172330000D01*
X71219761Y-171568095D02*
X71267380Y-171425238D01*
X71267380Y-171187142D01*
X71219761Y-171091904D01*
X71172142Y-171044285D01*
X71076904Y-170996666D01*
X70981666Y-170996666D01*
X70886428Y-171044285D01*
X70838809Y-171091904D01*
X70791190Y-171187142D01*
X70743571Y-171377619D01*
X70695952Y-171472857D01*
X70648333Y-171520476D01*
X70553095Y-171568095D01*
X70457857Y-171568095D01*
X70362619Y-171520476D01*
X70315000Y-171472857D01*
X70267380Y-171377619D01*
X70267380Y-171139523D01*
X70315000Y-170996666D01*
X71267380Y-170568095D02*
X70267380Y-170568095D01*
X70981666Y-170234761D01*
X70267380Y-169901428D01*
X71267380Y-169901428D01*
X70267380Y-168996666D02*
X70267380Y-169187142D01*
X70315000Y-169282380D01*
X70362619Y-169330000D01*
X70505476Y-169425238D01*
X70695952Y-169472857D01*
X71076904Y-169472857D01*
X71172142Y-169425238D01*
X71219761Y-169377619D01*
X71267380Y-169282380D01*
X71267380Y-169091904D01*
X71219761Y-168996666D01*
X71172142Y-168949047D01*
X71076904Y-168901428D01*
X70838809Y-168901428D01*
X70743571Y-168949047D01*
X70695952Y-168996666D01*
X70648333Y-169091904D01*
X70648333Y-169282380D01*
X70695952Y-169377619D01*
X70743571Y-169425238D01*
X70838809Y-169472857D01*
X71267380Y-168472857D02*
X70267380Y-168472857D01*
X70267380Y-168234761D01*
X70315000Y-168091904D01*
X70410238Y-167996666D01*
X70505476Y-167949047D01*
X70695952Y-167901428D01*
X70838809Y-167901428D01*
X71029285Y-167949047D01*
X71124523Y-167996666D01*
X71219761Y-168091904D01*
X71267380Y-168234761D01*
X71267380Y-168472857D01*
X71219761Y-167520476D02*
X71267380Y-167377619D01*
X71267380Y-167139523D01*
X71219761Y-167044285D01*
X71172142Y-166996666D01*
X71076904Y-166949047D01*
X70981666Y-166949047D01*
X70886428Y-166996666D01*
X70838809Y-167044285D01*
X70791190Y-167139523D01*
X70743571Y-167330000D01*
X70695952Y-167425238D01*
X70648333Y-167472857D01*
X70553095Y-167520476D01*
X70457857Y-167520476D01*
X70362619Y-167472857D01*
X70315000Y-167425238D01*
X70267380Y-167330000D01*
X70267380Y-167091904D01*
X70315000Y-166949047D01*
X70267380Y-166615714D02*
X70267380Y-165996666D01*
X70648333Y-166330000D01*
X70648333Y-166187142D01*
X70695952Y-166091904D01*
X70743571Y-166044285D01*
X70838809Y-165996666D01*
X71076904Y-165996666D01*
X71172142Y-166044285D01*
X71219761Y-166091904D01*
X71267380Y-166187142D01*
X71267380Y-166472857D01*
X71219761Y-166568095D01*
X71172142Y-166615714D01*
X70267380Y-165663333D02*
X70267380Y-165044285D01*
X70648333Y-165377619D01*
X70648333Y-165234761D01*
X70695952Y-165139523D01*
X70743571Y-165091904D01*
X70838809Y-165044285D01*
X71076904Y-165044285D01*
X71172142Y-165091904D01*
X71219761Y-165139523D01*
X71267380Y-165234761D01*
X71267380Y-165520476D01*
X71219761Y-165615714D01*
X71172142Y-165663333D01*
X70267380Y-164758571D02*
X70267380Y-164187142D01*
X71267380Y-164472857D02*
X70267380Y-164472857D01*
X71267380Y-163282380D02*
X70791190Y-163615714D01*
X71267380Y-163853809D02*
X70267380Y-163853809D01*
X70267380Y-163472857D01*
X70315000Y-163377619D01*
X70362619Y-163330000D01*
X70457857Y-163282380D01*
X70600714Y-163282380D01*
X70695952Y-163330000D01*
X70743571Y-163377619D01*
X70791190Y-163472857D01*
X70791190Y-163853809D01*
X72482200Y-139532380D02*
X72482200Y-139770476D01*
X72244104Y-139675238D02*
X72482200Y-139770476D01*
X72720295Y-139675238D01*
X72339342Y-139960952D02*
X72482200Y-139770476D01*
X72625057Y-139960952D01*
X72482200Y-139532380D02*
X72482200Y-139770476D01*
X72244104Y-139675238D02*
X72482200Y-139770476D01*
X72720295Y-139675238D01*
X72339342Y-139960952D02*
X72482200Y-139770476D01*
X72625057Y-139960952D01*
G04 #@! TO.C,U3*
D12*
X81338597Y-144731191D02*
X81338597Y-145135953D01*
X81362407Y-145183572D01*
X81386216Y-145207381D01*
X81433835Y-145231191D01*
X81529073Y-145231191D01*
X81576692Y-145207381D01*
X81600502Y-145183572D01*
X81624311Y-145135953D01*
X81624311Y-144731191D01*
X81814788Y-144731191D02*
X82124311Y-144731191D01*
X81957645Y-144921667D01*
X82029073Y-144921667D01*
X82076692Y-144945477D01*
X82100502Y-144969286D01*
X82124311Y-145016905D01*
X82124311Y-145135953D01*
X82100502Y-145183572D01*
X82076692Y-145207381D01*
X82029073Y-145231191D01*
X81886216Y-145231191D01*
X81838597Y-145207381D01*
X81814788Y-145183572D01*
D11*
X79424311Y-145257381D02*
X79424311Y-144257381D01*
X79805264Y-144257381D01*
X79900502Y-144305001D01*
X79948121Y-144352620D01*
X79995740Y-144447858D01*
X79995740Y-144590715D01*
X79948121Y-144685953D01*
X79900502Y-144733572D01*
X79805264Y-144781191D01*
X79424311Y-144781191D01*
X80995740Y-145162143D02*
X80948121Y-145209762D01*
X80805264Y-145257381D01*
X80710026Y-145257381D01*
X80567169Y-145209762D01*
X80471930Y-145114524D01*
X80424311Y-145019286D01*
X80376692Y-144828810D01*
X80376692Y-144685953D01*
X80424311Y-144495477D01*
X80471930Y-144400239D01*
X80567169Y-144305001D01*
X80710026Y-144257381D01*
X80805264Y-144257381D01*
X80948121Y-144305001D01*
X80995740Y-144352620D01*
X81376692Y-144971667D02*
X81852883Y-144971667D01*
X81281454Y-145257381D02*
X81614788Y-144257381D01*
X81948121Y-145257381D01*
X82329073Y-145257381D02*
X82519550Y-145257381D01*
X82614788Y-145209762D01*
X82662407Y-145162143D01*
X82757645Y-145019286D01*
X82805264Y-144828810D01*
X82805264Y-144447858D01*
X82757645Y-144352620D01*
X82710026Y-144305001D01*
X82614788Y-144257381D01*
X82424311Y-144257381D01*
X82329073Y-144305001D01*
X82281454Y-144352620D01*
X82233835Y-144447858D01*
X82233835Y-144685953D01*
X82281454Y-144781191D01*
X82329073Y-144828810D01*
X82424311Y-144876429D01*
X82614788Y-144876429D01*
X82710026Y-144828810D01*
X82757645Y-144781191D01*
X82805264Y-144685953D01*
X83138597Y-144257381D02*
X83757645Y-144257381D01*
X83424311Y-144638334D01*
X83567169Y-144638334D01*
X83662407Y-144685953D01*
X83710026Y-144733572D01*
X83757645Y-144828810D01*
X83757645Y-145066905D01*
X83710026Y-145162143D01*
X83662407Y-145209762D01*
X83567169Y-145257381D01*
X83281454Y-145257381D01*
X83186216Y-145209762D01*
X83138597Y-145162143D01*
X84376692Y-144257381D02*
X84471930Y-144257381D01*
X84567169Y-144305001D01*
X84614788Y-144352620D01*
X84662407Y-144447858D01*
X84710026Y-144638334D01*
X84710026Y-144876429D01*
X84662407Y-145066905D01*
X84614788Y-145162143D01*
X84567169Y-145209762D01*
X84471930Y-145257381D01*
X84376692Y-145257381D01*
X84281454Y-145209762D01*
X84233835Y-145162143D01*
X84186216Y-145066905D01*
X84138597Y-144876429D01*
X84138597Y-144638334D01*
X84186216Y-144447858D01*
X84233835Y-144352620D01*
X84281454Y-144305001D01*
X84376692Y-144257381D01*
X85567169Y-144257381D02*
X85376692Y-144257381D01*
X85281454Y-144305001D01*
X85233835Y-144352620D01*
X85138597Y-144495477D01*
X85090978Y-144685953D01*
X85090978Y-145066905D01*
X85138597Y-145162143D01*
X85186216Y-145209762D01*
X85281454Y-145257381D01*
X85471930Y-145257381D01*
X85567169Y-145209762D01*
X85614788Y-145162143D01*
X85662407Y-145066905D01*
X85662407Y-144828810D01*
X85614788Y-144733572D01*
X85567169Y-144685953D01*
X85471930Y-144638334D01*
X85281454Y-144638334D01*
X85186216Y-144685953D01*
X85138597Y-144733572D01*
X85090978Y-144828810D01*
X80570100Y-144283781D02*
X80570100Y-144521877D01*
X80332004Y-144426639D02*
X80570100Y-144521877D01*
X80808195Y-144426639D01*
X80427242Y-144712353D02*
X80570100Y-144521877D01*
X80712957Y-144712353D01*
G04 #@! TO.C,C30*
D12*
X88593571Y-151601428D02*
X88617380Y-151625238D01*
X88641190Y-151696666D01*
X88641190Y-151744285D01*
X88617380Y-151815714D01*
X88569761Y-151863333D01*
X88522142Y-151887142D01*
X88426904Y-151910952D01*
X88355476Y-151910952D01*
X88260238Y-151887142D01*
X88212619Y-151863333D01*
X88165000Y-151815714D01*
X88141190Y-151744285D01*
X88141190Y-151696666D01*
X88165000Y-151625238D01*
X88188809Y-151601428D01*
X88141190Y-151434761D02*
X88141190Y-151125238D01*
X88331666Y-151291904D01*
X88331666Y-151220476D01*
X88355476Y-151172857D01*
X88379285Y-151149047D01*
X88426904Y-151125238D01*
X88545952Y-151125238D01*
X88593571Y-151149047D01*
X88617380Y-151172857D01*
X88641190Y-151220476D01*
X88641190Y-151363333D01*
X88617380Y-151410952D01*
X88593571Y-151434761D01*
X88141190Y-150815714D02*
X88141190Y-150768095D01*
X88165000Y-150720476D01*
X88188809Y-150696666D01*
X88236428Y-150672857D01*
X88331666Y-150649047D01*
X88450714Y-150649047D01*
X88545952Y-150672857D01*
X88593571Y-150696666D01*
X88617380Y-150720476D01*
X88641190Y-150768095D01*
X88641190Y-150815714D01*
X88617380Y-150863333D01*
X88593571Y-150887142D01*
X88545952Y-150910952D01*
X88450714Y-150934761D01*
X88331666Y-150934761D01*
X88236428Y-150910952D01*
X88188809Y-150887142D01*
X88165000Y-150863333D01*
X88141190Y-150815714D01*
G04 #@! TO.C,C31*
X82643571Y-155608571D02*
X82619761Y-155632380D01*
X82548333Y-155656190D01*
X82500714Y-155656190D01*
X82429285Y-155632380D01*
X82381666Y-155584761D01*
X82357857Y-155537142D01*
X82334047Y-155441904D01*
X82334047Y-155370476D01*
X82357857Y-155275238D01*
X82381666Y-155227619D01*
X82429285Y-155180000D01*
X82500714Y-155156190D01*
X82548333Y-155156190D01*
X82619761Y-155180000D01*
X82643571Y-155203809D01*
X82810238Y-155156190D02*
X83119761Y-155156190D01*
X82953095Y-155346666D01*
X83024523Y-155346666D01*
X83072142Y-155370476D01*
X83095952Y-155394285D01*
X83119761Y-155441904D01*
X83119761Y-155560952D01*
X83095952Y-155608571D01*
X83072142Y-155632380D01*
X83024523Y-155656190D01*
X82881666Y-155656190D01*
X82834047Y-155632380D01*
X82810238Y-155608571D01*
X83595952Y-155656190D02*
X83310238Y-155656190D01*
X83453095Y-155656190D02*
X83453095Y-155156190D01*
X83405476Y-155227619D01*
X83357857Y-155275238D01*
X83310238Y-155299047D01*
G04 #@! TO.C,R6*
X86041190Y-144113333D02*
X85803095Y-144280000D01*
X86041190Y-144399047D02*
X85541190Y-144399047D01*
X85541190Y-144208571D01*
X85565000Y-144160952D01*
X85588809Y-144137142D01*
X85636428Y-144113333D01*
X85707857Y-144113333D01*
X85755476Y-144137142D01*
X85779285Y-144160952D01*
X85803095Y-144208571D01*
X85803095Y-144399047D01*
X85541190Y-143684761D02*
X85541190Y-143780000D01*
X85565000Y-143827619D01*
X85588809Y-143851428D01*
X85660238Y-143899047D01*
X85755476Y-143922857D01*
X85945952Y-143922857D01*
X85993571Y-143899047D01*
X86017380Y-143875238D01*
X86041190Y-143827619D01*
X86041190Y-143732380D01*
X86017380Y-143684761D01*
X85993571Y-143660952D01*
X85945952Y-143637142D01*
X85826904Y-143637142D01*
X85779285Y-143660952D01*
X85755476Y-143684761D01*
X85731666Y-143732380D01*
X85731666Y-143827619D01*
X85755476Y-143875238D01*
X85779285Y-143899047D01*
X85826904Y-143922857D01*
G04 #@! TO.C,R7*
X86041190Y-146663333D02*
X85803095Y-146830000D01*
X86041190Y-146949047D02*
X85541190Y-146949047D01*
X85541190Y-146758571D01*
X85565000Y-146710952D01*
X85588809Y-146687142D01*
X85636428Y-146663333D01*
X85707857Y-146663333D01*
X85755476Y-146687142D01*
X85779285Y-146710952D01*
X85803095Y-146758571D01*
X85803095Y-146949047D01*
X85541190Y-146496666D02*
X85541190Y-146163333D01*
X86041190Y-146377619D01*
G04 #@! TO.C,R9*
X89041190Y-144913333D02*
X88803095Y-145080000D01*
X89041190Y-145199047D02*
X88541190Y-145199047D01*
X88541190Y-145008571D01*
X88565000Y-144960952D01*
X88588809Y-144937142D01*
X88636428Y-144913333D01*
X88707857Y-144913333D01*
X88755476Y-144937142D01*
X88779285Y-144960952D01*
X88803095Y-145008571D01*
X88803095Y-145199047D01*
X89041190Y-144675238D02*
X89041190Y-144580000D01*
X89017380Y-144532380D01*
X88993571Y-144508571D01*
X88922142Y-144460952D01*
X88826904Y-144437142D01*
X88636428Y-144437142D01*
X88588809Y-144460952D01*
X88565000Y-144484761D01*
X88541190Y-144532380D01*
X88541190Y-144627619D01*
X88565000Y-144675238D01*
X88588809Y-144699047D01*
X88636428Y-144722857D01*
X88755476Y-144722857D01*
X88803095Y-144699047D01*
X88826904Y-144675238D01*
X88850714Y-144627619D01*
X88850714Y-144532380D01*
X88826904Y-144484761D01*
X88803095Y-144460952D01*
X88755476Y-144437142D01*
G04 #@! TO.C,U11*
X80645952Y-138206190D02*
X80645952Y-138610952D01*
X80669761Y-138658571D01*
X80693571Y-138682380D01*
X80741190Y-138706190D01*
X80836428Y-138706190D01*
X80884047Y-138682380D01*
X80907857Y-138658571D01*
X80931666Y-138610952D01*
X80931666Y-138206190D01*
X81431666Y-138706190D02*
X81145952Y-138706190D01*
X81288809Y-138706190D02*
X81288809Y-138206190D01*
X81241190Y-138277619D01*
X81193571Y-138325238D01*
X81145952Y-138349047D01*
X81907857Y-138706190D02*
X81622142Y-138706190D01*
X81765000Y-138706190D02*
X81765000Y-138206190D01*
X81717380Y-138277619D01*
X81669761Y-138325238D01*
X81622142Y-138349047D01*
G04 #@! TO.C,Y1*
X85126904Y-149668095D02*
X85126904Y-149906190D01*
X84960238Y-149406190D02*
X85126904Y-149668095D01*
X85293571Y-149406190D01*
X85722142Y-149906190D02*
X85436428Y-149906190D01*
X85579285Y-149906190D02*
X85579285Y-149406190D01*
X85531666Y-149477619D01*
X85484047Y-149525238D01*
X85436428Y-149549047D01*
G04 #@! TO.C,U2*
D11*
X94817380Y-159191904D02*
X95626904Y-159191904D01*
X95722142Y-159144285D01*
X95769761Y-159096666D01*
X95817380Y-159001428D01*
X95817380Y-158810952D01*
X95769761Y-158715714D01*
X95722142Y-158668095D01*
X95626904Y-158620476D01*
X94817380Y-158620476D01*
X94912619Y-158191904D02*
X94865000Y-158144285D01*
X94817380Y-158049047D01*
X94817380Y-157810952D01*
X94865000Y-157715714D01*
X94912619Y-157668095D01*
X95007857Y-157620476D01*
X95103095Y-157620476D01*
X95245952Y-157668095D01*
X95817380Y-158239523D01*
X95817380Y-157620476D01*
G04 #@! TD*
M02*
