G04 #@! TF.GenerationSoftware,KiCad,Pcbnew,(5.0.0)*
G04 #@! TF.CreationDate,2020-03-16T18:36:37-04:00*
G04 #@! TF.ProjectId,Temple_RPi_HAT,54656D706C655F5250695F4841542E6B,rev?*
G04 #@! TF.SameCoordinates,Original*
G04 #@! TF.FileFunction,Soldermask,Bot*
G04 #@! TF.FilePolarity,Negative*
%FSLAX46Y46*%
G04 Gerber Fmt 4.6, Leading zero omitted, Abs format (unit mm)*
G04 Created by KiCad (PCBNEW (5.0.0)) date 03/16/20 18:36:37*
%MOMM*%
%LPD*%
G01*
G04 APERTURE LIST*
%ADD10O,2.100000X2.100000*%
%ADD11R,2.100000X2.100000*%
%ADD12C,2.100000*%
%ADD13C,1.000000*%
%ADD14R,1.600000X2.100000*%
%ADD15O,1.600000X2.100000*%
%ADD16O,4.400000X6.200000*%
%ADD17R,2.600000X2.600000*%
%ADD18O,2.600000X2.600000*%
%ADD19R,2.609800X1.289000*%
%ADD20C,1.300000*%
%ADD21C,3.400000*%
%ADD22C,1.670000*%
%ADD23O,3.400000X4.400000*%
%ADD24O,1.700000X3.550000*%
%ADD25R,2.400000X1.800000*%
%ADD26R,1.400000X1.400000*%
%ADD27O,1.400000X1.400000*%
G04 APERTURE END LIST*
D10*
G04 #@! TO.C,J3*
X80535000Y-172210000D03*
X83075000Y-172210000D03*
X85615000Y-172210000D03*
X88155000Y-172210000D03*
X90695000Y-172210000D03*
X93235000Y-172210000D03*
X95775000Y-172210000D03*
D11*
X98315000Y-172210000D03*
D10*
X80535000Y-174750000D03*
X83075000Y-174750000D03*
X85615000Y-174750000D03*
X88155000Y-174750000D03*
X90695000Y-174750000D03*
X93235000Y-174750000D03*
X95775000Y-174750000D03*
X98315000Y-174750000D03*
D12*
X98315000Y-177290000D03*
D10*
X95775000Y-177290000D03*
X93235000Y-177290000D03*
X90695000Y-177290000D03*
X88155000Y-177290000D03*
X85615000Y-177290000D03*
X83075000Y-177290000D03*
X80535000Y-177290000D03*
G04 #@! TD*
D13*
G04 #@! TO.C,U10*
X103229000Y-161490500D03*
X102479000Y-162240500D03*
X102479000Y-160740500D03*
X103979000Y-162240500D03*
X103979000Y-160740500D03*
G04 #@! TD*
D14*
G04 #@! TO.C,M1*
X108361000Y-165797000D03*
D15*
X106861000Y-165797000D03*
G04 #@! TD*
D14*
G04 #@! TO.C,M2*
X108361000Y-170877000D03*
D15*
X106861000Y-170877000D03*
G04 #@! TD*
D11*
G04 #@! TO.C,J1*
X134606000Y-151382000D03*
D10*
X132066000Y-151382000D03*
X129526000Y-151382000D03*
X126986000Y-151382000D03*
G04 #@! TD*
D16*
G04 #@! TO.C,MK1*
X75320000Y-173830000D03*
X75320000Y-131030000D03*
X160320000Y-173830000D03*
X160320000Y-131030000D03*
G04 #@! TD*
D14*
G04 #@! TO.C,M3*
X115981000Y-165797000D03*
D15*
X114481000Y-165797000D03*
G04 #@! TD*
D17*
G04 #@! TO.C,SW1*
X145647000Y-127760000D03*
D18*
X153267000Y-127760000D03*
G04 #@! TD*
D14*
G04 #@! TO.C,M4*
X115981000Y-170877000D03*
D15*
X114481000Y-170877000D03*
G04 #@! TD*
D19*
G04 #@! TO.C,IR1*
X109071000Y-140714000D03*
X109071000Y-139444000D03*
X109071000Y-138174000D03*
X109071000Y-136904000D03*
G04 #@! TD*
D11*
G04 #@! TO.C,J2*
X134606000Y-153922000D03*
D10*
X132066000Y-153922000D03*
X129526000Y-153922000D03*
X126986000Y-153922000D03*
G04 #@! TD*
D11*
G04 #@! TO.C,J4*
X124565000Y-177290000D03*
D10*
X127105000Y-177290000D03*
X129645000Y-177290000D03*
X132185000Y-177290000D03*
X134725000Y-177290000D03*
X137265000Y-177290000D03*
G04 #@! TD*
D11*
G04 #@! TO.C,J5*
X124565000Y-174750000D03*
D10*
X127105000Y-174750000D03*
X129645000Y-174750000D03*
X132185000Y-174750000D03*
X134725000Y-174750000D03*
X137265000Y-174750000D03*
G04 #@! TD*
D11*
G04 #@! TO.C,J6*
X124565000Y-172210000D03*
D10*
X127105000Y-172210000D03*
X129645000Y-172210000D03*
X132185000Y-172210000D03*
X134725000Y-172210000D03*
X137265000Y-172210000D03*
G04 #@! TD*
D11*
G04 #@! TO.C,J7*
X124565000Y-169670000D03*
D10*
X127105000Y-169670000D03*
X129645000Y-169670000D03*
X132185000Y-169670000D03*
X134725000Y-169670000D03*
X137265000Y-169670000D03*
G04 #@! TD*
D11*
G04 #@! TO.C,LCD1*
X74315000Y-146210000D03*
D10*
X74315000Y-148750000D03*
X74315000Y-151290000D03*
X74315000Y-153830000D03*
G04 #@! TD*
D12*
G04 #@! TO.C,rpi_Header1*
X104790000Y-126760000D03*
X107330000Y-126760000D03*
X109870000Y-126760000D03*
X112410000Y-126760000D03*
X114950000Y-126760000D03*
X117490000Y-126760000D03*
X120030000Y-126760000D03*
X122570000Y-126760000D03*
X125110000Y-126760000D03*
X127650000Y-126760000D03*
D11*
X127650000Y-129300000D03*
D12*
X125110000Y-129300000D03*
X122570000Y-129300000D03*
X120030000Y-129300000D03*
X117490000Y-129300000D03*
X114950000Y-129300000D03*
X112410000Y-129300000D03*
X109870000Y-129300000D03*
X107330000Y-129300000D03*
X104790000Y-129300000D03*
X102250000Y-129300000D03*
X102250000Y-126760000D03*
X99710000Y-129300000D03*
X99710000Y-126760000D03*
X97170000Y-129300000D03*
X97170000Y-126760000D03*
X94630000Y-129300000D03*
X94630000Y-126760000D03*
X92090000Y-129300000D03*
X92090000Y-126760000D03*
X89550000Y-129300000D03*
X89550000Y-126760000D03*
X87010000Y-129300000D03*
X87010000Y-126760000D03*
X84470000Y-129300000D03*
X84470000Y-126760000D03*
X81930000Y-129300000D03*
X81930000Y-126760000D03*
X79390000Y-129300000D03*
X79390000Y-126760000D03*
G04 #@! TD*
D20*
G04 #@! TO.C,SW2*
X137495000Y-126668000D03*
X134495000Y-126668000D03*
G04 #@! TD*
D13*
G04 #@! TO.C,U9*
X115167000Y-160272000D03*
X114417000Y-161022000D03*
X114417000Y-159522000D03*
X115917000Y-161022000D03*
X115917000Y-159522000D03*
G04 #@! TD*
D21*
G04 #@! TO.C,BH1*
X149165000Y-171315000D03*
X149165000Y-133345000D03*
D22*
X155535000Y-132750000D03*
D23*
X159565000Y-152330000D03*
X138765000Y-152330000D03*
G04 #@! TD*
D24*
G04 #@! TO.C,J8*
X114101000Y-177802000D03*
D25*
X114801000Y-175252000D03*
X107951000Y-175252000D03*
D24*
X108651000Y-177802000D03*
G04 #@! TD*
D26*
G04 #@! TO.C,J9*
X73065000Y-167580000D03*
D27*
X73065000Y-168850000D03*
X74335000Y-167580000D03*
X74335000Y-168850000D03*
X75605000Y-167580000D03*
X75605000Y-168850000D03*
X76875000Y-167580000D03*
X76875000Y-168850000D03*
X78145000Y-167580000D03*
X78145000Y-168850000D03*
G04 #@! TD*
M02*
