M48
;DRILL file {KiCad (5.0.0)} date 03/19/20 18:33:00
;FORMAT={-:-/ absolute / metric / decimal}
FMAT,2
METRIC,TZ
T1C0.300
T2C0.400
T3C0.600
T4C0.650
T5C0.700
T6C1.000
T7C1.470
T8C2.500
%
G90
G05
M71
T1
X102.479Y-160.74
X102.479Y-162.24
X103.229Y-161.49
X103.979Y-160.74
X103.979Y-162.24
X114.417Y-159.522
X114.417Y-161.022
X115.167Y-160.272
X115.917Y-159.522
X115.917Y-161.022
T2
X73.003Y-165.606
X74.489Y-138.288
X74.565Y-160.33
X75.565Y-143.555
X76.775Y-155.078
X78.172Y-159.773
X81.131Y-169.67
X83.036Y-161.669
X83.515Y-156.88
X83.86Y-164.018
X84.242Y-170.305
X84.431Y-166.431
X84.938Y-167.575
X85.19Y-136.205
X85.215Y-137.605
X85.701Y-168.971
X86.211Y-157.097
X86.273Y-170.114
X86.338Y-160.869
X86.352Y-161.869
X87.34Y-158.08
X87.735Y-163.891
X88.37Y-168.4
X88.624Y-156.716
X88.815Y-137.23
X89.069Y-169.289
X90.065Y-140.58
X90.265Y-160.805
X90.275Y-164.59
X90.275Y-165.733
X91.865Y-134.08
X92.065Y-166.055
X92.815Y-156.33
X92.815Y-157.33
X93.831Y-163.193
X94.065Y-157.33
X94.847Y-162.431
X95.065Y-157.33
X95.09Y-163.605
X95.315Y-135.83
X95.765Y-164.63
X96.065Y-157.33
X96.244Y-161.288
X96.244Y-162.431
X97.065Y-157.33
X98.265Y-135.51
X99.038Y-136.904
X99.038Y-138.301
X99.038Y-139.825
X99.038Y-158.748
X99.292Y-142.238
X99.673Y-161.415
X100.816Y-159.637
X101.07Y-163.701
X101.89Y-142.73
X101.959Y-164.844
X103.483Y-156.589
X104.499Y-145.032
X104.626Y-143.381
X104.753Y-152.906
X104.753Y-154.557
X104.753Y-167.13
X104.88Y-151.255
X105.261Y-163.574
X105.896Y-135.761
X105.896Y-139.698
X106.912Y-134.11
X107.039Y-161.161
X107.166Y-159.764
X107.674Y-151.255
X107.801Y-152.906
X107.801Y-154.684
X108.182Y-134.11
X108.815Y-160.08
X108.817Y-150.239
X108.825Y-149.231
X109.315Y-159.08
X109.706Y-160.78
X111.23Y-163.828
X111.376Y-172.957
X111.565Y-149.78
X112.29Y-165.605
X112.415Y-154.68
X112.565Y-136.83
X112.627Y-134.872
X112.976Y-173.557
X113.516Y-163.701
X114.151Y-134.872
X114.865Y-149.03
X114.865Y-149.93
X115.183Y-155.361
X116.183Y-138.936
X116.183Y-139.952
X117.072Y-163.193
X117.115Y-151.53
X117.165Y-153.43
X117.199Y-138.936
X117.715Y-152.58
X118.665Y-136.43
X119.065Y-159.08
X119.865Y-136.245
X120.165Y-176.73
X120.247Y-159.256
X120.755Y-139.19
X121.085Y-147.521
X121.111Y-144.702
X121.357Y-151.786
X121.565Y-136.755
X121.822Y-140.663
X121.822Y-143.
X122.025Y-139.19
X122.34Y-159.43
X123.19Y-136.805
X123.295Y-139.19
X123.315Y-160.455
X123.618Y-153.475
X124.815Y-158.83
X124.819Y-141.73
X125.2Y-149.35
X126.315Y-158.83
X126.851Y-143.254
X126.851Y-149.096
X127.815Y-158.33
X128.121Y-138.047
X129.39Y-158.68
X130.661Y-137.793
X130.661Y-144.397
X130.89Y-158.505
X132.439Y-164.59
X133.19Y-158.955
X133.963Y-164.59
X134.725Y-139.19
X134.725Y-140.46
X134.725Y-141.73
X134.725Y-144.905
X134.725Y-146.175
X134.725Y-147.445
X135.487Y-164.59
X135.995Y-139.19
X135.995Y-147.445
X137.265Y-139.19
X137.265Y-147.445
X138.535Y-139.19
X138.535Y-147.445
X138.938Y-130.071
X139.805Y-139.19
X139.805Y-140.46
X139.805Y-141.73
X139.805Y-144.905
X139.805Y-146.175
X139.805Y-147.445
X140.74Y-178.805
X152.251Y-172.21
X152.861Y-178.979
X154.283Y-171.702
X154.677Y-142.098
X155.223Y-178.928
X156.315Y-169.67
X156.315Y-171.702
X157.839Y-138.555
X157.839Y-145.286
X157.966Y-146.937
X158.093Y-136.269
X158.115Y-164.93
X158.315Y-166.317
X158.565Y-156.33
X158.565Y-158.08
X158.576Y-159.777
X159.477Y-167.282
X160.138Y-139.292
X160.392Y-147.318
X161.076Y-142.416
X163.935Y-171.461
X164.291Y-162.355
X164.545Y-151.357
X164.71Y-141.819
X164.9Y-161.047
T3
X114.481Y-170.877
X115.981Y-170.877
X106.861Y-170.877
X108.361Y-170.877
X106.861Y-165.797
X108.361Y-165.797
X114.481Y-165.797
X115.981Y-165.797
T4
X73.065Y-167.58
X73.065Y-168.85
X74.335Y-167.58
X74.335Y-168.85
X75.605Y-167.58
X75.605Y-168.85
X76.875Y-167.58
X76.875Y-168.85
X78.145Y-167.58
X78.145Y-168.85
T6
X124.565Y-174.75
X127.105Y-174.75
X129.645Y-174.75
X132.185Y-174.75
X134.725Y-174.75
X137.265Y-174.75
X126.986Y-151.382
X129.526Y-151.382
X132.066Y-151.382
X134.606Y-151.382
X126.986Y-153.922
X129.526Y-153.922
X132.066Y-153.922
X134.606Y-153.922
X124.565Y-169.67
X127.105Y-169.67
X129.645Y-169.67
X132.185Y-169.67
X134.725Y-169.67
X137.265Y-169.67
X124.565Y-172.21
X127.105Y-172.21
X129.645Y-172.21
X132.185Y-172.21
X134.725Y-172.21
X137.265Y-172.21
X80.535Y-172.21
X80.535Y-174.75
X80.535Y-177.29
X83.075Y-172.21
X83.075Y-174.75
X83.075Y-177.29
X85.615Y-172.21
X85.615Y-174.75
X85.615Y-177.29
X88.155Y-172.21
X88.155Y-174.75
X88.155Y-177.29
X90.695Y-172.21
X90.695Y-174.75
X90.695Y-177.29
X93.235Y-172.21
X93.235Y-174.75
X93.235Y-177.29
X95.775Y-172.21
X95.775Y-174.75
X95.775Y-177.29
X98.315Y-172.21
X98.315Y-174.75
X98.315Y-177.29
X74.315Y-146.21
X74.315Y-148.75
X74.315Y-151.29
X74.315Y-153.83
X145.647Y-127.76
X153.267Y-127.76
X124.565Y-177.29
X127.105Y-177.29
X129.645Y-177.29
X132.185Y-177.29
X134.725Y-177.29
X137.265Y-177.29
X79.39Y-126.76
X79.39Y-129.3
X81.93Y-126.76
X81.93Y-129.3
X84.47Y-126.76
X84.47Y-129.3
X87.01Y-126.76
X87.01Y-129.3
X89.55Y-126.76
X89.55Y-129.3
X92.09Y-126.76
X92.09Y-129.3
X94.63Y-126.76
X94.63Y-129.3
X97.17Y-126.76
X97.17Y-129.3
X99.71Y-126.76
X99.71Y-129.3
X102.25Y-126.76
X102.25Y-129.3
X104.79Y-126.76
X104.79Y-129.3
X107.33Y-126.76
X107.33Y-129.3
X109.87Y-126.76
X109.87Y-129.3
X112.41Y-126.76
X112.41Y-129.3
X114.95Y-126.76
X114.95Y-129.3
X117.49Y-126.76
X117.49Y-129.3
X120.03Y-126.76
X120.03Y-129.3
X122.57Y-126.76
X122.57Y-129.3
X125.11Y-126.76
X125.11Y-129.3
X127.65Y-126.76
X127.65Y-129.3
T7
X149.165Y-133.345
X149.165Y-171.315
T5
X108.476Y-175.077G85X108.476Y-175.427
G05
X108.651Y-178.032G85X108.651Y-178.532
G05
X114.101Y-178.032G85X114.101Y-178.532
G05
X114.276Y-175.077G85X114.276Y-175.427
G05
T8
X138.765Y-152.83G85X138.765Y-151.83
G05
X159.565Y-152.83G85X159.565Y-151.83
G05
T0
M30
